<?xml version='1.0' encoding='UTF-8' standalone='no'?>
<svg width="387pt" xmlns="http://www.w3.org/2000/svg" xmlns:xlink="http://www.w3.org/1999/xlink" height="298pt" viewBox="0 0 387 298">
 <title>gl2ps_renderer figure</title>
 <desc>
Creator: GL2PS 1.4.2, (C) 1999-2020 C. Geuzaine
For: Octave
CreationDate: Sat Nov 12 16:38:58 2022
</desc>
 <defs/>
 <polygon fill="#ffffff" points="0,0 387,0 387,298 0,298"/>
 <g>
  <polygon fill="#ffffff" points="0,298 387,298 387,0 0,0" shape-rendering="crispEdges"/>
  <clipPath id="cp00387298">
   <polygon points="0,298 387,298 387,0 0,0"/>
  </clipPath>
  <g clip-path="url(#cp00387298)">
   <polygon fill="#ffffff" points="351.105,265.71 351.105,22.3913 50.4349,22.3913 50.4349,265.71" shape-rendering="crispEdges"/>
   <text xml:space="preserve" font-family="FreeSans" font-style="normal" font-size="10" font-weight="normal" transform="translate(30.4404,58.412) rotate(-0,15,-4)">
    <tspan fill="rgb(38,38,38)" y="-0" x="0 6 9 ">0.1</tspan>
   </text>
   <text xml:space="preserve" font-family="FreeSans" font-style="normal" font-size="10" font-weight="normal" transform="translate(24.4404,98.4597) rotate(-0,21,-4)">
    <tspan fill="rgb(38,38,38)" y="-0" x="0 6 9 15 ">0.08</tspan>
   </text>
   <text xml:space="preserve" font-family="FreeSans" font-style="normal" font-size="10" font-weight="normal" transform="translate(24.4404,138.507) rotate(-0,21,-4)">
    <tspan fill="rgb(38,38,38)" y="-0" x="0 6 9 15 ">0.06</tspan>
   </text>
   <text xml:space="preserve" font-family="FreeSans" font-style="normal" font-size="10" font-weight="normal" transform="translate(24.4404,178.555) rotate(-0,21,-4)">
    <tspan fill="rgb(38,38,38)" y="-0" x="0 6 9 15 ">0.04</tspan>
   </text>
   <text xml:space="preserve" font-family="FreeSans" font-style="normal" font-size="10" font-weight="normal" transform="translate(24.4404,218.603) rotate(-0,21,-4)">
    <tspan fill="rgb(38,38,38)" y="-0" x="0 6 9 15 ">0.02</tspan>
   </text>
   <text xml:space="preserve" font-family="FreeSans" font-style="normal" font-size="11" font-weight="normal" transform="translate(175.77,298.22) rotate(-0,25,-12)">
    <tspan fill="rgb(38,38,38)" y="-3" x="0 7 13 22 28 34 37 41 46 ">Tempo (s)</tspan>
   </text>
   <text xml:space="preserve" font-family="FreeSans" font-style="normal" font-size="10" font-weight="normal" transform="translate(39.4404,258.65) rotate(-0,6,-4)">
    <tspan fill="rgb(38,38,38)" y="-0" x="0 ">0</tspan>
   </text>
   <text xml:space="preserve" font-family="FreeSans" font-style="normal" font-size="11" font-weight="normal" transform="translate(-9.5596,144.051) rotate(-90,29,0)">
    <tspan fill="rgb(38,38,38)" y="-3" x="0 7 13 18 20 26 32 38 41 45 54 ">Posição (m)</tspan>
   </text>
   <text xml:space="preserve" font-family="FreeSans" font-style="normal" font-size="10" font-weight="normal" transform="translate(348.105,281.22) rotate(-0,3,-8)">
    <tspan fill="rgb(38,38,38)" y="-0" x="0 ">5</tspan>
   </text>
   <text xml:space="preserve" font-family="FreeSans" font-style="normal" font-size="10" font-weight="normal" transform="translate(287.971,281.22) rotate(-0,3,-8)">
    <tspan fill="rgb(38,38,38)" y="-0" x="0 ">4</tspan>
   </text>
   <text xml:space="preserve" font-family="FreeSans" font-style="normal" font-size="10" font-weight="normal" transform="translate(227.837,281.22) rotate(-0,3,-8)">
    <tspan fill="rgb(38,38,38)" y="-0" x="0 ">3</tspan>
   </text>
   <text xml:space="preserve" font-family="FreeSans" font-style="normal" font-size="10" font-weight="normal" transform="translate(167.703,281.22) rotate(-0,3,-8)">
    <tspan fill="rgb(38,38,38)" y="-0" x="0 ">2</tspan>
   </text>
   <text xml:space="preserve" font-family="FreeSans" font-style="normal" font-size="10" font-weight="normal" transform="translate(107.569,281.22) rotate(-0,3,-8)">
    <tspan fill="rgb(38,38,38)" y="-0" x="0 ">1</tspan>
   </text>
   <text xml:space="preserve" font-family="FreeSans" font-style="normal" font-size="10" font-weight="normal" transform="translate(47.4349,281.22) rotate(-0,3,-8)">
    <tspan fill="rgb(38,38,38)" y="-0" x="0 ">0</tspan>
   </text>
   <polyline fill="none" stroke="#262626" stroke-width="0.5" points="351.105,22.3913 351.105,25.402" stroke-linejoin="miter" stroke-linecap="butt"/>
   <polyline fill="none" stroke="#262626" stroke-width="0.5" points="290.971,265.71 290.971,262.7" stroke-linejoin="miter" stroke-linecap="butt"/>
   <polyline fill="none" stroke="#262626" stroke-width="0.5" points="230.837,22.3913 230.837,25.402" stroke-linejoin="miter" stroke-linecap="butt"/>
   <polyline fill="none" stroke="#262626" stroke-width="0.5" points="230.837,265.71 230.837,262.7" stroke-linejoin="miter" stroke-linecap="butt"/>
   <polyline fill="none" stroke="#262626" stroke-width="0.5" points="170.703,22.3913 170.703,25.402" stroke-linejoin="miter" stroke-linecap="butt"/>
   <polyline fill="none" stroke="#262626" stroke-width="0.5" points="170.703,265.71 170.703,262.7" stroke-linejoin="miter" stroke-linecap="butt"/>
   <polyline fill="none" stroke="#262626" stroke-width="0.5" points="290.971,22.3913 290.971,25.402" stroke-linejoin="miter" stroke-linecap="butt"/>
   <polyline fill="none" stroke="#262626" stroke-width="0.5" points="351.105,265.71 351.105,262.7" stroke-linejoin="miter" stroke-linecap="butt"/>
   <polyline fill="none" stroke="#262626" stroke-width="0.5" points="110.569,22.3913 110.569,25.402" stroke-linejoin="miter" stroke-linecap="butt"/>
   <polyline stroke-dasharray="16,0" fill="none" stroke-opacity="0.15" stroke="#262626" stroke-width="0.5" points="50.4349,254.65 351.105,254.65" stroke-linejoin="miter" stroke-linecap="butt"/>
   <polyline stroke-dasharray="16,0" fill="none" stroke-opacity="0.15" stroke="#262626" stroke-width="0.5" points="50.4349,214.603 351.105,214.603" stroke-linejoin="miter" stroke-linecap="butt"/>
   <polyline stroke-dasharray="16,0" fill="none" stroke-opacity="0.15" stroke="#262626" stroke-width="0.5" points="50.4349,174.555 351.105,174.555" stroke-linejoin="miter" stroke-linecap="butt"/>
   <polyline stroke-dasharray="16,0" fill="none" stroke-opacity="0.15" stroke="#262626" stroke-width="0.5" points="50.4349,134.507 351.105,134.507" stroke-linejoin="miter" stroke-linecap="butt"/>
   <polyline stroke-dasharray="16,0" fill="none" stroke-opacity="0.15" stroke="#262626" stroke-width="0.5" points="50.4349,94.4597 351.105,94.4597" stroke-linejoin="miter" stroke-linecap="butt"/>
   <polyline stroke-dasharray="16,0" fill="none" stroke-opacity="0.15" stroke="#262626" stroke-width="0.5" points="50.4349,54.412 351.105,54.412" stroke-linejoin="miter" stroke-linecap="butt"/>
   <polyline fill="none" stroke="#262626" stroke-width="0.5" points="50.4349,254.65 53.4383,254.65" stroke-linejoin="miter" stroke-linecap="butt"/>
   <polyline fill="none" stroke="#262626" stroke-width="0.5" points="351.105,254.65 348.101,254.65" stroke-linejoin="miter" stroke-linecap="butt"/>
   <polyline fill="none" stroke="#262626" stroke-width="0.5" points="50.4349,214.603 53.4383,214.603" stroke-linejoin="miter" stroke-linecap="butt"/>
   <polyline fill="none" stroke="#262626" stroke-width="0.5" points="351.105,214.603 348.101,214.603" stroke-linejoin="miter" stroke-linecap="butt"/>
   <polyline fill="none" stroke="#262626" stroke-width="0.5" points="50.4349,174.555 53.4383,174.555" stroke-linejoin="miter" stroke-linecap="butt"/>
   <polyline fill="none" stroke="#262626" stroke-width="0.5" points="351.105,174.555 348.101,174.555" stroke-linejoin="miter" stroke-linecap="butt"/>
   <polyline fill="none" stroke="#262626" stroke-width="0.5" points="50.4349,134.507 53.4383,134.507" stroke-linejoin="miter" stroke-linecap="butt"/>
   <polyline fill="none" stroke="#262626" stroke-width="0.5" points="351.105,134.507 348.101,134.507" stroke-linejoin="miter" stroke-linecap="butt"/>
   <polyline fill="none" stroke="#262626" stroke-width="0.5" points="50.4349,94.4597 53.4383,94.4597" stroke-linejoin="miter" stroke-linecap="butt"/>
   <polyline fill="none" stroke="#262626" stroke-width="0.5" points="351.105,94.4597 348.101,94.4597" stroke-linejoin="miter" stroke-linecap="butt"/>
   <polyline fill="none" stroke="#262626" stroke-width="0.5" points="50.4349,54.412 53.4383,54.412" stroke-linejoin="miter" stroke-linecap="butt"/>
   <polyline fill="none" stroke="#262626" stroke-width="0.5" points="351.105,54.412 348.101,54.412" stroke-linejoin="miter" stroke-linecap="butt"/>
   <polyline fill="none" stroke="#262626" stroke-width="0.5" points="110.569,265.71 110.569,262.7" stroke-linejoin="miter" stroke-linecap="butt"/>
   <polyline fill="none" stroke="#262626" stroke-width="0.5" points="50.4349,22.3913 50.4349,25.402" stroke-linejoin="miter" stroke-linecap="butt"/>
   <polyline fill="none" stroke="#262626" stroke-width="0.5" points="50.4349,265.71 50.4349,262.7" stroke-linejoin="miter" stroke-linecap="butt"/>
   <polyline stroke-dasharray="16,0" fill="none" stroke-opacity="0.15" stroke="#262626" stroke-width="0.5" points="351.105,265.71 351.105,22.3913" stroke-linejoin="miter" stroke-linecap="butt"/>
   <polyline stroke-dasharray="16,0" fill="none" stroke-opacity="0.15" stroke="#262626" stroke-width="0.5" points="290.971,265.71 290.971,22.3913" stroke-linejoin="miter" stroke-linecap="butt"/>
   <polyline stroke-dasharray="16,0" fill="none" stroke-opacity="0.15" stroke="#262626" stroke-width="0.5" points="230.837,265.71 230.837,22.3913" stroke-linejoin="miter" stroke-linecap="butt"/>
   <polyline stroke-dasharray="16,0" fill="none" stroke="#262626" stroke-width="0.5" points="50.4349,265.71 351.105,265.71" stroke-linejoin="miter" stroke-linecap="square"/>
   <polyline stroke-dasharray="16,0" fill="none" stroke="#262626" stroke-width="0.5" points="50.4349,22.3913 351.105,22.3913" stroke-linejoin="miter" stroke-linecap="square"/>
   <polyline stroke-dasharray="16,0" fill="none" stroke="#262626" stroke-width="0.5" points="50.4349,265.71 50.4349,22.3913" stroke-linejoin="miter" stroke-linecap="square"/>
   <polyline stroke-dasharray="16,0" fill="none" stroke="#262626" stroke-width="0.5" points="351.105,265.71 351.105,22.3913" stroke-linejoin="miter" stroke-linecap="square"/>
   <polyline stroke-dasharray="16,0" fill="none" stroke-opacity="0.15" stroke="#262626" stroke-width="0.5" points="170.703,265.71 170.703,22.3913" stroke-linejoin="miter" stroke-linecap="butt"/>
   <polyline stroke-dasharray="16,0" fill="none" stroke-opacity="0.15" stroke="#262626" stroke-width="0.5" points="110.569,265.71 110.569,22.3913" stroke-linejoin="miter" stroke-linecap="butt"/>
   <polyline stroke-dasharray="16,0" fill="none" stroke-opacity="0.15" stroke="#262626" stroke-width="0.5" points="50.4349,265.71 50.4349,22.3913" stroke-linejoin="miter" stroke-linecap="butt"/>
   <text xml:space="preserve" font-family="FreeSans" font-style="normal" font-size="11" font-weight="bold" transform="translate(147.77,12.3913) rotate(-0,53,0)">
    <tspan fill="rgb(0,0,0)" y="-3" x="0 8 14 20 27 34 40 44 50 53 59 66 69 76 82 89 93 99 ">Resposta ao degrau</tspan>
   </text>
   <polyline fill="none" stroke="#0071bc" stroke-width="0.5" points="54.1632,254.577 57.8915,254.577 57.8915,253.761 61.6198,253.761 61.6198,251.326 65.3481,251.326" stroke-linejoin="round" stroke-linecap="butt"/>
   <polyline fill="none" stroke="#0071bc" stroke-width="0.5" points="50.4349,254.65 54.1632,254.65 54.1632,254.577" stroke-linejoin="round" stroke-linecap="butt"/>
   <polyline fill="none" stroke="#0071bc" stroke-width="0.5" points="65.3481,251.326 65.3481,246.82 69.0764,246.82 69.0764,240.17 72.8047,240.17 72.8047,231.543 76.533,231.543 76.533,221.245 80.2613,221.245 80.2613,209.643 83.9896,209.643 83.9896,197.122 87.7179,197.122 87.7179,184.053 91.4462,184.053 91.4462,170.776 95.1745,170.776 95.1745,157.586 98.9028,157.586 98.9028,144.732 102.631,144.732 102.631,132.417 106.359,132.417 106.359,120.798 110.088,120.798 110.088,109.99 113.816,109.99 113.816,100.069 117.544,100.069 117.544,91.0801 121.273,91.0801 121.273,83.0387 125.001,83.0387 125.001,75.9373 128.729,75.9373 128.729,69.7496 132.458,69.7496 132.458,64.4341 136.186,64.4341 136.186,59.9384 139.914,59.9384 139.914,56.202 143.642,56.202 143.642,53.1596 147.371,53.1596 147.371,50.743 151.099,50.743 151.099,48.8836 154.827,48.8836 154.827,47.5136 158.556,47.5136 158.556,46.5677 162.284,46.5677 162.284,45.9838 166.012,45.9838 166.012,45.7039 169.741,45.7039 169.741,45.6747 173.469,45.6747 173.469,45.8476 177.197,45.8476 177.197,46.179 180.926,46.179 180.926,46.6304 184.654,46.6304 184.654,47.168 188.382,47.168 188.382,47.7628 192.11,47.7628 192.11,48.3903 195.839,48.3903 195.839,49.0299 199.567,49.0299 199.567,49.6649 203.295,49.6649 203.295,50.282 207.024,50.282 207.024,50.8707 210.752,50.8707 210.752,51.4234 214.48,51.4234 214.48,51.9348 218.209,51.9348 218.209,52.4014 221.937,52.4014 221.937,52.8216 225.665,52.8216 225.665,53.1951 229.393,53.1951 229.393,53.5226 233.122,53.5226 233.122,53.8058 236.85,53.8058 236.85,54.0471 240.578,54.0471 240.578,54.2492 244.307,54.2492 244.307,54.4152 248.035,54.4152 248.035,54.5487 251.763,54.5487 251.763,54.6528 255.492,54.6528 255.492,54.7311 259.22,54.7311 259.22,54.7868 262.948,54.7868 262.948,54.8233 266.677,54.8233 266.677,54.8433 270.405,54.8433 270.405,54.8496 274.133,54.8496 274.133,54.8449 277.861,54.8449 277.861,54.8315 281.59,54.8315 281.59,54.8112 285.318,54.8112 285.318,54.7859 289.046,54.7859 289.046,54.7572 292.775,54.7572 292.775,54.7264 296.503,54.7264 296.503,54.6945 300.231,54.6945 300.231,54.6626 303.96,54.6626 303.96,54.6313 307.688,54.6313 307.688,54.6012 311.416,54.6012 311.416,54.5728 315.144,54.5728 315.144,54.5463 318.873,54.5463 318.873,54.522 322.601,54.522 322.601,54.5 326.329,54.5 326.329,54.4804 330.058,54.4804 330.058,54.4631 333.786,54.4631 333.786,54.448 337.514,54.448 337.514,54.4351 341.243,54.4351 341.243,54.4242 344.971,54.4242 344.971,54.4151 348.699,54.4151 348.699,54.4078 351.405,54.4078" stroke-linejoin="round" stroke-linecap="butt"/>
   <polyline fill="none" stroke="#ff0000" stroke-width="0.5" points="50.4349,254.65 54.1632,254.65 54.1632,254.561 57.8915,254.561 57.8915,253.57 61.6198,253.57 61.6198,250.612 65.3481,250.612 65.3481,245.139 69.0764,245.139 69.0764,237.066 72.8047,237.066 72.8047,226.605 76.533,226.605 76.533,214.138 80.2613,214.138 80.2613,200.132 83.9896,200.132 83.9896,185.078 87.7179,185.078 87.7179,169.453 91.4462,169.453 91.4462,153.695 95.1745,153.695 95.1745,138.191 98.9028,138.191 98.9028,123.266 102.631,123.266 102.631,109.185 106.359,109.185 106.359,96.1495 110.088,96.1495 110.088,84.3057 113.816,84.3057 113.816,73.7456 117.544,73.7456 117.544,64.5145 121.273,64.5145 121.273,56.6172 125.001,56.6172 125.001,50.0246 128.729,50.0246 128.729,44.6794 132.458,44.6794 132.458,40.5031 136.186,40.5031 136.186,37.4006 139.914,37.4006 139.914,35.2664 143.642,35.2664 143.642,33.9882 147.371,33.9882 147.371,33.4513 151.099,33.4513 151.099,33.5419 154.827,33.5419 154.827,34.1497 158.556,34.1497 158.556,35.1702 162.284,35.1702 162.284,36.5065 166.012,36.5065 166.012,38.07 169.741,38.07 169.741,39.7819 173.469,39.7819 173.469,41.5729 177.197,41.5729 177.197,43.3836 180.926,43.3836 180.926,45.1645 184.654,45.1645 184.654,46.8753 188.382,46.8753 188.382,48.4843 192.11,48.4843 192.11,49.9679 195.839,49.9679 195.839,51.3099 199.567,51.3099 199.567,52.5004 203.295,52.5004 203.295,53.5349 207.024,53.5349 207.024,54.414 210.752,54.414 210.752,55.1419 214.48,55.1419 214.48,55.726 218.209,55.726 218.209,56.1762 221.937,56.1762 221.937,56.5039 225.665,56.5039 225.665,56.7219 229.393,56.7219 229.393,56.8434 233.122,56.8434 233.122,56.882 236.85,56.882 236.85,56.8509 240.578,56.8509 240.578,56.763 244.307,56.763 244.307,56.6301 248.035,56.6301 248.035,56.4635 251.763,56.4635 251.763,56.2731 255.492,56.2731 255.492,56.068 259.22,56.068 259.22,55.8559 262.948,55.8559 262.948,55.6434 266.677,55.6434 266.677,55.436 270.405,55.436 270.405,55.2381 274.133,55.2381 274.133,55.0531 277.861,55.0531 277.861,54.8837 281.59,54.8837 281.59,54.7312 285.318,54.7312 285.318,54.5969 289.046,54.5969 289.046,54.4809 292.775,54.4809 292.775,54.3831 296.503,54.3831 296.503,54.3029 300.231,54.3029 300.231,54.2393 303.96,54.2393 303.96,54.1909 307.688,54.1909 307.688,54.1566 311.416,54.1566 311.416,54.1347 315.144,54.1347 315.144,54.1236 318.873,54.1236 318.873,54.1217 322.601,54.1217 322.601,54.1277 326.329,54.1277 326.329,54.1398 330.058,54.1398 330.058,54.1568 333.786,54.1568 333.786,54.1774 337.514,54.1774 337.514,54.2004 341.243,54.2004 341.243,54.2249 344.971,54.2249 344.971,54.25 348.699,54.25 348.699,54.2749" stroke-linejoin="round" stroke-linecap="butt"/>
  </g>
  <clipPath id="cp00387298">
   <polygon points="0,298 387,298 387,0 0,0"/>
  </clipPath>
  <g clip-path="url(#cp00387298)">
   <polygon fill="#ffffff" points="343.387,61.6845 343.387,30.1086 260.518,30.1086 260.518,61.6845" shape-rendering="crispEdges"/>
   <polyline stroke-dasharray="16,0" fill="none" stroke="#262626" stroke-width="0.5" points="260.518,30.1086 343.387,30.1086" stroke-linejoin="miter" stroke-linecap="square"/>
   <polyline stroke-dasharray="16,0" fill="none" stroke="#262626" stroke-width="0.5" points="260.518,61.6845 343.387,61.6845 343.387,30.1086" stroke-linejoin="miter" stroke-linecap="square"/>
   <polyline stroke-dasharray="16,0" fill="none" stroke="#262626" stroke-width="0.5" points="260.518,61.6845 260.518,30.1086" stroke-linejoin="miter" stroke-linecap="square"/>
   <text xml:space="preserve" font-family="FreeSans" font-style="normal" font-size="9" font-weight="normal" transform="translate(287.529,57.8259) rotate(-0,-0,-5)">
    <tspan fill="rgb(0,0,0)" y="-2" x="0 6 11 16 19 24 27 32 ">K1=-0,66</tspan>
   </text>
   <text xml:space="preserve" font-family="FreeSans" font-style="normal" font-size="9" font-weight="normal" transform="translate(287.529,43.9672) rotate(-0,-0,-5)">
    <tspan fill="rgb(0,0,0)" y="-2" x="0 6 11 16 19 24 27 32 37 42 47 ">K1=-0,54327</tspan>
   </text>
   <polyline fill="none" stroke="#ff0000" stroke-width="0.5" points="264.377,52.8259 283.67,52.8259" stroke-linejoin="round" stroke-linecap="butt"/>
   <polyline fill="none" stroke="#0071bc" stroke-width="0.5" points="264.377,38.9673 283.67,38.9673" stroke-linejoin="round" stroke-linecap="butt"/>
  </g>
 </g>
</svg>
