<?xml version='1.0' encoding='UTF-8' standalone='no'?>
<svg width="370pt" viewBox="0 0 370 277" xmlns:xlink="http://www.w3.org/1999/xlink" height="277pt" xmlns="http://www.w3.org/2000/svg">
 <title>gl2ps_renderer figure</title>
 <desc>
Creator: GL2PS 1.4.2, (C) 1999-2020 C. Geuzaine
For: Octave
CreationDate: Sat Nov 12 17:06:48 2022
</desc>
 <defs/>
 <polygon fill="#ffffff" points="0,0 370,0 370,277 0,277"/>
 <g>
  <polygon fill="#ffffff" points="0,277 370,277 370,0 0,0" shape-rendering="crispEdges"/>
  <clipPath id="cp00370277">
   <polygon points="0,277 370,277 370,0 0,0"/>
  </clipPath>
  <g clip-path="url(#cp00370277)">
   <polygon fill="#ffffff" points="48.2113,245.052 335.625,245.052 335.625,20.817 48.2113,20.817" shape-rendering="crispEdges"/>
   <polyline fill="none" points="48.2113,245.052 48.2113,20.817" stroke-width="0.5" stroke="#262626" stroke-linecap="butt" stroke-opacity="0.15" stroke-linejoin="miter" stroke-dasharray="16,0"/>
   <polyline fill="none" points="105.694,245.052 105.694,20.817" stroke-width="0.5" stroke="#262626" stroke-linecap="butt" stroke-opacity="0.15" stroke-linejoin="miter" stroke-dasharray="16,0"/>
   <polyline fill="none" points="163.177,245.052 163.177,20.817" stroke-width="0.5" stroke="#262626" stroke-linecap="butt" stroke-opacity="0.15" stroke-linejoin="miter" stroke-dasharray="16,0"/>
   <polyline fill="none" points="220.66,245.052 220.66,20.817" stroke-width="0.5" stroke="#262626" stroke-linecap="butt" stroke-opacity="0.15" stroke-linejoin="miter" stroke-dasharray="16,0"/>
   <polyline fill="none" points="278.142,245.052 278.142,20.817" stroke-width="0.5" stroke="#262626" stroke-linecap="butt" stroke-opacity="0.15" stroke-linejoin="miter" stroke-dasharray="16,0"/>
   <polyline fill="none" points="335.625,245.052 335.625,20.817" stroke-width="0.5" stroke="#262626" stroke-linecap="butt" stroke-opacity="0.15" stroke-linejoin="miter" stroke-dasharray="16,0"/>
   <polyline fill="none" points="48.2113,245.052 48.2113,242.175" stroke-width="0.5" stroke="#262626" stroke-linecap="butt" stroke-linejoin="miter"/>
   <polyline fill="none" points="48.2113,20.817 48.2113,23.6941" stroke-width="0.5" stroke="#262626" stroke-linecap="butt" stroke-linejoin="miter"/>
   <polyline fill="none" points="105.694,245.052 105.694,242.175" stroke-width="0.5" stroke="#262626" stroke-linecap="butt" stroke-linejoin="miter"/>
   <polyline fill="none" points="105.694,20.817 105.694,23.6941" stroke-width="0.5" stroke="#262626" stroke-linecap="butt" stroke-linejoin="miter"/>
   <polyline fill="none" points="163.177,245.052 163.177,242.175" stroke-width="0.5" stroke="#262626" stroke-linecap="butt" stroke-linejoin="miter"/>
   <polyline fill="none" points="163.177,20.817 163.177,23.6941" stroke-width="0.5" stroke="#262626" stroke-linecap="butt" stroke-linejoin="miter"/>
   <polyline fill="none" points="220.66,245.052 220.66,242.175" stroke-width="0.5" stroke="#262626" stroke-linecap="butt" stroke-linejoin="miter"/>
   <polyline fill="none" points="220.66,20.817 220.66,23.6941" stroke-width="0.5" stroke="#262626" stroke-linecap="butt" stroke-linejoin="miter"/>
   <polyline fill="none" points="278.142,245.052 278.142,242.175" stroke-width="0.5" stroke="#262626" stroke-linecap="butt" stroke-linejoin="miter"/>
   <polyline fill="none" points="278.142,20.817 278.142,23.6941" stroke-width="0.5" stroke="#262626" stroke-linecap="butt" stroke-linejoin="miter"/>
   <polyline fill="none" points="335.625,245.052 335.625,242.175" stroke-width="0.5" stroke="#262626" stroke-linecap="butt" stroke-linejoin="miter"/>
   <polyline fill="none" points="335.625,20.817 335.625,23.6941" stroke-width="0.5" stroke="#262626" stroke-linecap="butt" stroke-linejoin="miter"/>
   <text font-style="normal" xml:space="preserve" font-size="10" font-family="FreeSans" transform="translate(45.2113,260.56) rotate(-0,3,-8)" font-weight="normal">
    <tspan fill="rgb(38,38,38)" y="-0" x="0 ">0</tspan>
   </text>
   <text font-style="normal" xml:space="preserve" font-size="10" font-family="FreeSans" transform="translate(102.694,260.56) rotate(-0,3,-8)" font-weight="normal">
    <tspan fill="rgb(38,38,38)" y="-0" x="0 ">2</tspan>
   </text>
   <text font-style="normal" xml:space="preserve" font-size="10" font-family="FreeSans" transform="translate(160.177,260.56) rotate(-0,3,-8)" font-weight="normal">
    <tspan fill="rgb(38,38,38)" y="-0" x="0 ">4</tspan>
   </text>
   <text font-style="normal" xml:space="preserve" font-size="10" font-family="FreeSans" transform="translate(217.66,260.56) rotate(-0,3,-8)" font-weight="normal">
    <tspan fill="rgb(38,38,38)" y="-0" x="0 ">6</tspan>
   </text>
   <text font-style="normal" xml:space="preserve" font-size="10" font-family="FreeSans" transform="translate(275.142,260.56) rotate(-0,3,-8)" font-weight="normal">
    <tspan fill="rgb(38,38,38)" y="-0" x="0 ">8</tspan>
   </text>
   <text font-style="normal" xml:space="preserve" font-size="10" font-family="FreeSans" transform="translate(329.625,260.56) rotate(-0,6,-8)" font-weight="normal">
    <tspan fill="rgb(38,38,38)" y="-0" x="0 6 ">10</tspan>
   </text>
   <polyline fill="none" points="48.2113,245.052 335.625,245.052" stroke-width="0.5" stroke="#262626" stroke-linecap="butt" stroke-opacity="0.15" stroke-linejoin="miter" stroke-dasharray="16,0"/>
   <polyline fill="none" points="48.2113,207.68 335.625,207.68" stroke-width="0.5" stroke="#262626" stroke-linecap="butt" stroke-opacity="0.15" stroke-linejoin="miter" stroke-dasharray="16,0"/>
   <polyline fill="none" points="48.2113,170.307 335.625,170.307" stroke-width="0.5" stroke="#262626" stroke-linecap="butt" stroke-opacity="0.15" stroke-linejoin="miter" stroke-dasharray="16,0"/>
   <polyline fill="none" points="48.2113,132.935 335.625,132.935" stroke-width="0.5" stroke="#262626" stroke-linecap="butt" stroke-opacity="0.15" stroke-linejoin="miter" stroke-dasharray="16,0"/>
   <polyline fill="none" points="48.2113,95.562 335.625,95.562" stroke-width="0.5" stroke="#262626" stroke-linecap="butt" stroke-opacity="0.15" stroke-linejoin="miter" stroke-dasharray="16,0"/>
   <polyline fill="none" points="48.2113,58.1895 335.625,58.1895" stroke-width="0.5" stroke="#262626" stroke-linecap="butt" stroke-opacity="0.15" stroke-linejoin="miter" stroke-dasharray="16,0"/>
   <polyline fill="none" points="48.2113,20.817 335.625,20.817" stroke-width="0.5" stroke="#262626" stroke-linecap="butt" stroke-opacity="0.15" stroke-linejoin="miter" stroke-dasharray="16,0"/>
   <polyline fill="none" points="48.2113,245.052 51.0896,245.052" stroke-width="0.5" stroke="#262626" stroke-linecap="butt" stroke-linejoin="miter"/>
   <polyline fill="none" points="335.625,245.052 332.747,245.052" stroke-width="0.5" stroke="#262626" stroke-linecap="butt" stroke-linejoin="miter"/>
   <polyline fill="none" points="48.2113,207.68 51.0896,207.68" stroke-width="0.5" stroke="#262626" stroke-linecap="butt" stroke-linejoin="miter"/>
   <polyline fill="none" points="335.625,207.68 332.747,207.68" stroke-width="0.5" stroke="#262626" stroke-linecap="butt" stroke-linejoin="miter"/>
   <polyline fill="none" points="48.2113,170.307 51.0896,170.307" stroke-width="0.5" stroke="#262626" stroke-linecap="butt" stroke-linejoin="miter"/>
   <polyline fill="none" points="335.625,170.307 332.747,170.307" stroke-width="0.5" stroke="#262626" stroke-linecap="butt" stroke-linejoin="miter"/>
   <polyline fill="none" points="48.2113,132.935 51.0896,132.935" stroke-width="0.5" stroke="#262626" stroke-linecap="butt" stroke-linejoin="miter"/>
   <polyline fill="none" points="335.625,132.935 332.747,132.935" stroke-width="0.5" stroke="#262626" stroke-linecap="butt" stroke-linejoin="miter"/>
   <polyline fill="none" points="48.2113,95.562 51.0896,95.562" stroke-width="0.5" stroke="#262626" stroke-linecap="butt" stroke-linejoin="miter"/>
   <polyline fill="none" points="335.625,95.562 332.747,95.562" stroke-width="0.5" stroke="#262626" stroke-linecap="butt" stroke-linejoin="miter"/>
   <polyline fill="none" points="48.2113,58.1895 51.0896,58.1895" stroke-width="0.5" stroke="#262626" stroke-linecap="butt" stroke-linejoin="miter"/>
   <polyline fill="none" points="335.625,58.1895 332.747,58.1895" stroke-width="0.5" stroke="#262626" stroke-linecap="butt" stroke-linejoin="miter"/>
   <polyline fill="none" points="48.2113,20.817 51.0896,20.817" stroke-width="0.5" stroke="#262626" stroke-linecap="butt" stroke-linejoin="miter"/>
   <polyline fill="none" points="335.625,20.817 332.747,20.817" stroke-width="0.5" stroke="#262626" stroke-linecap="butt" stroke-linejoin="miter"/>
   <text font-style="normal" xml:space="preserve" font-size="10" font-family="FreeSans" transform="translate(19.2041,249.052) rotate(-0,24,-4)" font-weight="normal">
    <tspan fill="rgb(38,38,38)" y="-0" x="0 3 9 12 18 ">-0.06</tspan>
   </text>
   <text font-style="normal" xml:space="preserve" font-size="10" font-family="FreeSans" transform="translate(19.2041,211.68) rotate(-0,24,-4)" font-weight="normal">
    <tspan fill="rgb(38,38,38)" y="-0" x="0 3 9 12 18 ">-0.04</tspan>
   </text>
   <text font-style="normal" xml:space="preserve" font-size="10" font-family="FreeSans" transform="translate(19.2041,174.307) rotate(-0,24,-4)" font-weight="normal">
    <tspan fill="rgb(38,38,38)" y="-0" x="0 3 9 12 18 ">-0.02</tspan>
   </text>
   <text font-style="normal" xml:space="preserve" font-size="10" font-family="FreeSans" transform="translate(37.2041,136.935) rotate(-0,6,-4)" font-weight="normal">
    <tspan fill="rgb(38,38,38)" y="-0" x="0 ">0</tspan>
   </text>
   <text font-style="normal" xml:space="preserve" font-size="10" font-family="FreeSans" transform="translate(22.2041,99.562) rotate(-0,21,-4)" font-weight="normal">
    <tspan fill="rgb(38,38,38)" y="-0" x="0 6 9 15 ">0.02</tspan>
   </text>
   <text font-style="normal" xml:space="preserve" font-size="10" font-family="FreeSans" transform="translate(22.2041,62.1895) rotate(-0,21,-4)" font-weight="normal">
    <tspan fill="rgb(38,38,38)" y="-0" x="0 6 9 15 ">0.04</tspan>
   </text>
   <text font-style="normal" xml:space="preserve" font-size="10" font-family="FreeSans" transform="translate(22.2041,24.8169) rotate(-0,21,-4)" font-weight="normal">
    <tspan fill="rgb(38,38,38)" y="-0" x="0 6 9 15 ">0.06</tspan>
   </text>
   <polyline fill="none" points="48.2113,245.052 335.625,245.052" stroke-width="0.5" stroke="#262626" stroke-linecap="square" stroke-linejoin="miter" stroke-dasharray="16,0"/>
   <polyline fill="none" points="48.2113,20.817 335.625,20.817" stroke-width="0.5" stroke="#262626" stroke-linecap="square" stroke-linejoin="miter" stroke-dasharray="16,0"/>
   <polyline fill="none" points="48.2113,245.052 48.2113,20.817" stroke-width="0.5" stroke="#262626" stroke-linecap="square" stroke-linejoin="miter" stroke-dasharray="16,0"/>
   <polyline fill="none" points="335.625,245.052 335.625,20.817" stroke-width="0.5" stroke="#262626" stroke-linecap="square" stroke-linejoin="miter" stroke-dasharray="16,0"/>
   <text font-style="normal" xml:space="preserve" font-size="11" font-family="FreeSans" transform="translate(166.918,277.56) rotate(-0,25,-12)" font-weight="normal">
    <tspan fill="rgb(38,38,38)" y="-3" x="0 7 13 22 28 34 37 41 46 ">Tempo (s)</tspan>
   </text>
   <text font-style="normal" xml:space="preserve" font-size="11" font-family="FreeSans" transform="translate(-14.7959,132.935) rotate(-90,29,0)" font-weight="normal">
    <tspan fill="rgb(38,38,38)" y="-3" x="0 7 13 18 20 26 32 38 41 45 54 ">Posição (m)</tspan>
   </text>
   <text font-style="normal" xml:space="preserve" font-size="11" font-family="FreeSans" transform="translate(139.918,10.8169) rotate(-0,52,0)" font-weight="bold">
    <tspan fill="rgb(0,0,0)" y="-1" x="0 8 14 18 24 28 34 41 47 50 56 59 65 71 78 85 88 95 101 ">Referência senoidal</tspan>
   </text>
   <polyline fill="none" points="48.2113,147.697 49.9933,147.055 51.7752,146.864 53.5572,147.557 55.3392,149.332 57.1211,152.177 58.9031,155.928 60.6851,160.327 62.467,165.066 64.249,169.817 66.031,174.255 67.8129,178.078 69.5949,181.019 71.3769,182.853 73.1588,183.41 74.9408,182.57 76.7228,180.273 78.5047,176.512 80.2867,171.335 82.0687,164.842 83.8506,157.177 85.6326,148.525 87.4145,139.105 89.1965,129.161 90.9785,118.957 92.7604,108.768 94.5424,98.8684 96.3244,89.531 98.1063,81.0136 99.8883,73.5542 101.67,67.3642 103.452,62.6226 105.234,59.4712 107.016,58.011 108.798,58.2992 110.58,60.3482 112.362,64.1248 114.144,69.5512 115.926,76.507 117.708,84.8324 119.49,94.3319 121.272,104.779 123.054,115.919 124.836,127.487 126.618,139.222 128.4,150.863 130.182,162.158 131.964,172.858 133.746,182.726 135.528,191.538 137.31,199.093 139.092,205.214 140.874,209.753 142.655,212.598 144.437,213.675 146.219,212.949 148.001,210.428 149.783,206.163 151.565,200.245 153.347,192.806 155.129,184.016 156.911,174.075 158.693,163.216 160.475,151.693 162.257,139.777 164.039,127.75 165.821,115.898 167.603,104.503 169.385,93.8362 171.167,84.1541 172.949,75.6881 174.731,68.6412 176.513,63.1822 178.295,59.4417 180.077,57.5087 181.859,57.4282 183.641,59.2005 185.423,62.7804 187.205,68.079 188.987,74.9652 190.769,83.2692 192.55,92.7867 194.332,103.283 196.114,114.496 197.896,126.155 199.678,137.992 201.46,149.744 203.242,161.153 205.024,171.967 206.806,181.946 208.588,190.866 210.37,198.522 212.152,204.737 213.934,209.362 215.716,212.286 217.498,213.433 219.28,212.769 221.062,210.302 222.844,206.082 224.626,200.203 226.408,192.796 228.19,184.031 229.972,174.112 231.754,163.269 233.536,151.757 235.318,139.849 237.1,127.826 238.882,115.976 240.664,104.58 242.445,93.9122 244.227,84.2269 246.009,75.7567 247.791,68.7049 249.573,63.2405 251.355,59.4944 253.137,57.5556 254.919,57.4695 256.701,59.2363 258.483,62.811 260.265,68.1048 262.047,74.9865 263.829,83.2864 265.611,92.8002 267.393,103.293 269.175,114.504 270.957,126.16 272.739,137.995 274.521,149.745 276.303,161.153 278.085,171.966 279.867,181.944 281.649,190.863 283.431,198.519 285.213,204.733 286.995,209.359 288.777,212.282 290.559,213.429 292.341,212.765 294.122,210.298 295.904,206.079 297.686,200.2 299.468,192.793 301.25,184.029 303.032,174.109 304.814,163.267 306.596,151.755 308.378,139.847 310.16,127.825 311.942,115.975 313.724,104.58 315.506,93.9116 317.288,84.2264 319.07,75.7564 320.852,68.7047 322.634,63.2404 324.416,59.4944 326.198,57.5557 327.98,57.4696 329.762,59.2364 331.544,62.8112 333.326,68.1049" stroke-width="0.5" stroke="#0071bc" stroke-linecap="butt" stroke-linejoin="round"/>
   <polyline fill="none" points="48.2113,147.697 49.9933,147.062 51.7752,146.957 53.5572,147.903 55.3392,150.143 57.1211,153.661 58.9031,158.257 60.6851,163.615 62.467,169.354 64.249,175.068 66.031,180.353 67.8129,184.833 69.5949,188.174 71.3769,190.102 73.1588,190.405 74.9408,188.944 76.7228,185.652 78.5047,180.536 80.2867,173.673 82.0687,165.205 83.8506,155.334 85.6326,144.313 87.4145,132.435 89.1965,120.028 90.9785,107.438 92.7604,95.0225 94.5424,83.1379 96.3244,72.129 98.1063,62.3191 99.8883,54.0004 101.67,47.4261 103.452,42.8034 105.234,40.2873 107.016,39.9767 108.798,41.9122 110.58,46.0739 112.362,52.3832 114.144,60.7041 115.926,70.847 117.708,82.5737 119.49,95.6037 121.272,109.621 123.054,124.278 124.836,139.219 126.618,154.098 128.4,168.579 130.182,182.338 131.964,195.066 133.746,206.475 135.528,216.303 137.31,224.317 139.092,230.327 140.874,234.182 142.655,235.781 144.437,235.073 146.219,232.061 148.001,226.802 149.783,219.405 151.565,210.033 153.347,198.896 155.129,186.247 156.911,172.378 158.693,157.611 160.475,142.294 162.257,126.787 164.039,111.459 165.821,96.6726 167.603,82.7831 169.385,70.1232 171.167,58.9973 172.949,49.6737 174.731,42.3778 176.513,37.2864 178.295,34.5229 180.077,34.1548 181.859,36.191 183.641,40.5823 185.423,47.2219 187.205,55.948 188.987,66.5478 190.769,78.7626 192.55,92.2941 194.332,106.811 196.114,121.953 197.896,137.356 199.678,152.664 201.46,167.538 203.242,181.648 205.024,194.685 206.806,206.36 208.588,216.409 210.37,224.606 212.152,230.759 213.934,234.721 215.716,236.395 217.498,235.734 219.28,232.744 221.062,227.485 222.844,220.071 224.626,210.668 226.408,199.489 228.19,186.79 229.972,172.866 231.754,158.041 233.536,142.665 235.318,127.1 237.1,111.715 238.882,96.8756 240.664,82.9368 242.445,70.2322 244.227,59.0665 246.009,49.7082 247.791,42.3827 249.573,37.2666 251.355,34.4832 253.137,34.0996 254.919,36.1245 256.701,40.508 258.483,47.1431 260.265,55.8674 262.047,66.4679 263.829,78.6852 265.611,92.2208 267.393,106.743 269.175,121.891 270.957,137.3 272.739,152.616 274.521,167.496 276.303,181.613 278.085,194.657 279.867,206.338 281.649,216.393 283.431,224.595 285.213,230.752 286.995,234.718 288.777,236.396 290.559,235.737 292.341,232.749 294.122,227.492 295.904,220.079 297.686,210.677 299.468,199.498 301.25,186.799 303.032,172.875 304.814,158.05 306.596,142.674 308.378,127.108 310.16,111.722 311.942,96.8818 313.724,82.9423 315.506,70.2368 317.288,59.0703 319.07,49.7113 320.852,42.3851 322.634,37.2683 324.416,34.4844 326.198,34.1003 327.98,36.1247 329.762,40.5079 331.544,47.1426 333.326,55.8667" stroke-width="0.5" stroke="#ff0000" stroke-linecap="butt" stroke-linejoin="round"/>
   <polyline fill="none" points="48.2113,245.052 49.9933,243.672 51.7752,239.565 53.5572,232.832 55.3392,223.64 57.1211,212.214 58.9031,198.836 60.6851,183.835 62.467,167.581 64.249,150.474 66.031,132.935 67.8129,115.395 69.5949,98.2883 71.3769,82.0342 73.1588,67.0335 74.9408,53.6554 76.7228,42.2295 78.5047,33.037 80.2867,26.3044 82.0687,22.1973 83.8506,20.817 85.6326,22.1973 87.4145,26.3044 89.1965,33.037 90.9785,42.2295 92.7604,53.6554 94.5424,67.0335 96.3244,82.0342 98.1063,98.2883 99.8883,115.395 101.67,132.935 103.452,150.474 105.234,167.581 107.016,183.835 108.798,198.836 110.58,212.214 112.362,223.64 114.144,232.832 115.926,239.565 117.708,243.672 119.49,243.672 121.272,245.052 123.054,243.672 124.836,239.565 126.618,232.832 128.4,223.64 130.182,212.214 131.964,198.836 133.746,183.835 135.528,167.581 137.31,150.474 139.092,132.935 140.874,115.395 142.655,98.2883 144.437,82.0342 146.219,67.0335 148.001,53.6554 149.783,42.2295 151.565,33.037 153.347,26.3044 155.129,22.1973 156.911,20.817 158.693,22.1973 160.475,26.3044 162.257,33.037 164.039,42.2295 165.821,53.6554 167.603,67.0335 169.385,82.0342 171.167,98.2883 172.949,115.395 174.731,132.935 176.513,150.474 178.295,167.581 180.077,183.835 181.859,198.836 183.641,212.214 185.423,223.64 187.205,232.832 188.987,239.565 190.769,243.672 192.55,243.672 194.332,245.052 196.114,243.672 197.896,239.565 199.678,232.832 201.46,223.64 203.242,212.214 205.024,198.836 206.806,183.835 208.588,167.581 210.37,150.474 212.152,132.935 213.934,115.395 215.716,98.2883 217.498,82.0342 219.28,67.0335 221.062,53.6554 222.844,42.2295 224.626,33.037 226.408,26.3044 228.19,22.1973 229.972,20.817 231.754,22.1973 233.536,26.3044 235.318,33.037 237.1,42.2295 238.882,53.6554 240.664,67.0335 242.445,82.0342 244.227,98.2883 246.009,115.395 247.791,132.935 249.573,150.474 251.355,167.581 253.137,183.835 254.919,198.836 256.701,212.214 258.483,223.64 260.265,232.832 262.047,239.565 263.829,243.672 265.611,243.672 267.393,245.052 269.175,243.672 270.957,239.565 272.739,232.832 274.521,223.64 276.303,212.214 278.085,198.836 279.867,183.835 281.649,167.581 283.431,150.474 285.213,132.935 286.995,115.395 288.777,98.2883 290.559,82.0342 292.341,67.0335 294.122,53.6554 295.904,42.2295 297.686,33.037 299.468,26.3044 301.25,22.1973 303.032,20.817 304.814,22.1973 306.596,26.3044 308.378,33.037 310.16,42.2295 311.942,53.6554 313.724,67.0335 315.506,82.0342 317.288,98.2883 319.07,115.395 320.852,132.935 322.634,150.474 324.416,167.581 326.198,183.835 327.98,198.836 329.762,212.214 331.544,223.64 333.326,232.832" stroke-width="0.5" stroke="#000000" stroke-linecap="butt" stroke-linejoin="round"/>
  </g>
  <clipPath id="cp00370277">
   <polygon points="0,277 370,277 370,0 0,0"/>
  </clipPath>
  <g clip-path="url(#cp00370277)">
   <polygon fill="#ffffff" points="245.039,72.0719 327.908,72.0719 327.908,28.5342 245.039,28.5342" shape-rendering="crispEdges"/>
   <polyline fill="none" points="245.039,72.0719 327.908,72.0719" stroke-width="0.5" stroke="#262626" stroke-linecap="square" stroke-linejoin="miter" stroke-dasharray="16,0"/>
   <polyline fill="none" points="245.039,28.5342 327.908,28.5342" stroke-width="0.5" stroke="#262626" stroke-linecap="square" stroke-linejoin="miter" stroke-dasharray="16,0"/>
   <polyline fill="none" points="245.039,72.0719 245.039,28.5342" stroke-width="0.5" stroke="#262626" stroke-linecap="square" stroke-linejoin="miter" stroke-dasharray="16,0"/>
   <polyline fill="none" points="327.908,72.0719 327.908,28.5342" stroke-width="0.5" stroke="#262626" stroke-linecap="square" stroke-linejoin="miter" stroke-dasharray="16,0"/>
   <polyline fill="none" points="248.897,37.3928 268.19,37.3928" stroke-width="0.5" stroke="#0071bc" stroke-linecap="butt" stroke-linejoin="round"/>
   <text font-style="normal" xml:space="preserve" font-size="9" font-family="FreeSans" transform="translate(272.049,42.3928) rotate(-0,-0,-5)" font-weight="normal">
    <tspan fill="rgb(0,0,0)" y="-2" x="0 6 11 16 19 24 27 32 37 42 47 ">K1=-0,54327</tspan>
   </text>
   <polyline fill="none" points="248.897,51.2515 268.19,51.2515" stroke-width="0.5" stroke="#ff0000" stroke-linecap="butt" stroke-linejoin="round"/>
   <text font-style="normal" xml:space="preserve" font-size="9" font-family="FreeSans" transform="translate(272.049,56.2515) rotate(-0,-0,-5)" font-weight="normal">
    <tspan fill="rgb(0,0,0)" y="-2" x="0 6 11 16 19 24 27 32 ">K1=-0,66</tspan>
   </text>
   <polyline fill="none" points="248.897,64.1617 268.19,64.1617" stroke-width="0.5" stroke="#000000" stroke-linecap="butt" stroke-linejoin="round"/>
   <text font-style="normal" xml:space="preserve" font-size="9" font-family="FreeSans" transform="translate(272.049,68.1617) rotate(-0,-0,-4)" font-weight="normal">
    <tspan fill="rgb(0,0,0)" y="-0" x="0 6 11 14 19 22 27 32 37 39 ">Referência</tspan>
   </text>
  </g>
 </g>
</svg>
