<?xml version='1.0' encoding='UTF-8' standalone='no'?>
<svg width="349pt" xmlns:xlink="http://www.w3.org/1999/xlink" viewBox="0 0 349 292" xmlns="http://www.w3.org/2000/svg" height="292pt">
 <title>gl2ps_renderer figure</title>
 <desc>
Creator: GL2PS 1.4.2, (C) 1999-2020 C. Geuzaine
For: Octave
CreationDate: Sat Nov 12 16:03:31 2022
</desc>
 <defs/>
 <polygon points="0,0 349,0 349,292 0,292" fill="#ffffff"/>
 <g>
  <polygon shape-rendering="crispEdges" points="0,292 349,292 349,0 0,0" fill="#ffffff"/>
  <clipPath id="cp00349292">
   <polygon points="0,292 349,292 349,0 0,0"/>
  </clipPath>
  <g clip-path="url(#cp00349292)">
   <polygon shape-rendering="crispEdges" points="45.3813,259.823 315.924,259.823 315.924,22 45.3813,22" fill="#ffffff"/>
   <polyline stroke-width="0.5" stroke-opacity="0.15" points="45.3813,259.823 45.3813,22" stroke-linecap="butt" fill="none" stroke="#262626" stroke-linejoin="miter" stroke-dasharray="16,0"/>
   <polyline stroke-width="0.5" stroke-opacity="0.15" points="84.0302,259.823 84.0302,22" stroke-linecap="butt" fill="none" stroke="#262626" stroke-linejoin="miter" stroke-dasharray="16,0"/>
   <polyline stroke-width="0.5" stroke-opacity="0.15" points="122.679,259.823 122.679,22" stroke-linecap="butt" fill="none" stroke="#262626" stroke-linejoin="miter" stroke-dasharray="16,0"/>
   <polyline stroke-width="0.5" stroke-opacity="0.15" points="161.328,259.823 161.328,22" stroke-linecap="butt" fill="none" stroke="#262626" stroke-linejoin="miter" stroke-dasharray="16,0"/>
   <polyline stroke-width="0.5" stroke-opacity="0.15" points="199.977,259.823 199.977,22" stroke-linecap="butt" fill="none" stroke="#262626" stroke-linejoin="miter" stroke-dasharray="16,0"/>
   <polyline stroke-width="0.5" stroke-opacity="0.15" points="238.626,259.823 238.626,22" stroke-linecap="butt" fill="none" stroke="#262626" stroke-linejoin="miter" stroke-dasharray="16,0"/>
   <polyline stroke-width="0.5" stroke-opacity="0.15" points="277.275,259.823 277.275,22" stroke-linecap="butt" fill="none" stroke="#262626" stroke-linejoin="miter" stroke-dasharray="16,0"/>
   <polyline stroke-width="0.5" stroke-opacity="0.15" points="315.924,259.823 315.924,22" stroke-linecap="butt" fill="none" stroke="#262626" stroke-linejoin="miter" stroke-dasharray="16,0"/>
   <polyline stroke-width="0.5" points="45.3813,259.823 45.3813,257.12" stroke-linecap="butt" fill="none" stroke="#262626" stroke-linejoin="miter"/>
   <polyline stroke-width="0.5" points="45.3813,22 45.3813,24.7034" stroke-linecap="butt" fill="none" stroke="#262626" stroke-linejoin="miter"/>
   <polyline stroke-width="0.5" points="84.0302,259.823 84.0302,257.12" stroke-linecap="butt" fill="none" stroke="#262626" stroke-linejoin="miter"/>
   <polyline stroke-width="0.5" points="84.0302,22 84.0302,24.7034" stroke-linecap="butt" fill="none" stroke="#262626" stroke-linejoin="miter"/>
   <polyline stroke-width="0.5" points="122.679,259.823 122.679,257.12" stroke-linecap="butt" fill="none" stroke="#262626" stroke-linejoin="miter"/>
   <polyline stroke-width="0.5" points="122.679,22 122.679,24.7034" stroke-linecap="butt" fill="none" stroke="#262626" stroke-linejoin="miter"/>
   <polyline stroke-width="0.5" points="161.328,259.823 161.328,257.12" stroke-linecap="butt" fill="none" stroke="#262626" stroke-linejoin="miter"/>
   <polyline stroke-width="0.5" points="161.328,22 161.328,24.7034" stroke-linecap="butt" fill="none" stroke="#262626" stroke-linejoin="miter"/>
   <polyline stroke-width="0.5" points="199.977,259.823 199.977,257.12" stroke-linecap="butt" fill="none" stroke="#262626" stroke-linejoin="miter"/>
   <polyline stroke-width="0.5" points="199.977,22 199.977,24.7034" stroke-linecap="butt" fill="none" stroke="#262626" stroke-linejoin="miter"/>
   <polyline stroke-width="0.5" points="238.626,259.823 238.626,257.12" stroke-linecap="butt" fill="none" stroke="#262626" stroke-linejoin="miter"/>
   <polyline stroke-width="0.5" points="238.626,22 238.626,24.7034" stroke-linecap="butt" fill="none" stroke="#262626" stroke-linejoin="miter"/>
   <polyline stroke-width="0.5" points="277.275,259.823 277.275,257.12" stroke-linecap="butt" fill="none" stroke="#262626" stroke-linejoin="miter"/>
   <polyline stroke-width="0.5" points="277.275,22 277.275,24.7034" stroke-linecap="butt" fill="none" stroke="#262626" stroke-linejoin="miter"/>
   <polyline stroke-width="0.5" points="315.924,259.823 315.924,257.12" stroke-linecap="butt" fill="none" stroke="#262626" stroke-linejoin="miter"/>
   <polyline stroke-width="0.5" points="315.924,22 315.924,24.7034" stroke-linecap="butt" fill="none" stroke="#262626" stroke-linejoin="miter"/>
   <text xml:space="preserve" font-weight="normal" font-style="normal" font-size="10" transform="translate(42.3813,275.318) rotate(-0,3,-8)" font-family="FreeSans">
    <tspan y="-0" x="0 " fill="rgb(38,38,38)">0</tspan>
   </text>
   <text xml:space="preserve" font-weight="normal" font-style="normal" font-size="10" transform="translate(81.0302,275.318) rotate(-0,3,-8)" font-family="FreeSans">
    <tspan y="-0" x="0 " fill="rgb(38,38,38)">1</tspan>
   </text>
   <text xml:space="preserve" font-weight="normal" font-style="normal" font-size="10" transform="translate(119.679,275.318) rotate(-0,3,-8)" font-family="FreeSans">
    <tspan y="-0" x="0 " fill="rgb(38,38,38)">2</tspan>
   </text>
   <text xml:space="preserve" font-weight="normal" font-style="normal" font-size="10" transform="translate(158.328,275.318) rotate(-0,3,-8)" font-family="FreeSans">
    <tspan y="-0" x="0 " fill="rgb(38,38,38)">3</tspan>
   </text>
   <text xml:space="preserve" font-weight="normal" font-style="normal" font-size="10" transform="translate(196.977,275.318) rotate(-0,3,-8)" font-family="FreeSans">
    <tspan y="-0" x="0 " fill="rgb(38,38,38)">4</tspan>
   </text>
   <text xml:space="preserve" font-weight="normal" font-style="normal" font-size="10" transform="translate(235.626,275.318) rotate(-0,3,-8)" font-family="FreeSans">
    <tspan y="-0" x="0 " fill="rgb(38,38,38)">5</tspan>
   </text>
   <text xml:space="preserve" font-weight="normal" font-style="normal" font-size="10" transform="translate(274.275,275.318) rotate(-0,3,-8)" font-family="FreeSans">
    <tspan y="-0" x="0 " fill="rgb(38,38,38)">6</tspan>
   </text>
   <text xml:space="preserve" font-weight="normal" font-style="normal" font-size="10" transform="translate(312.924,275.318) rotate(-0,3,-8)" font-family="FreeSans">
    <tspan y="-0" x="0 " fill="rgb(38,38,38)">7</tspan>
   </text>
   <polyline stroke-width="0.5" stroke-opacity="0.15" points="45.3813,259.823 315.924,259.823" stroke-linecap="butt" fill="none" stroke="#262626" stroke-linejoin="miter" stroke-dasharray="16,0"/>
   <polyline stroke-width="0.5" stroke-opacity="0.15" points="45.3813,200.367 315.924,200.367" stroke-linecap="butt" fill="none" stroke="#262626" stroke-linejoin="miter" stroke-dasharray="16,0"/>
   <polyline stroke-width="0.5" stroke-opacity="0.15" points="45.3813,140.912 315.924,140.912" stroke-linecap="butt" fill="none" stroke="#262626" stroke-linejoin="miter" stroke-dasharray="16,0"/>
   <polyline stroke-width="0.5" stroke-opacity="0.15" points="45.3813,81.4558 315.924,81.4558" stroke-linecap="butt" fill="none" stroke="#262626" stroke-linejoin="miter" stroke-dasharray="16,0"/>
   <polyline stroke-width="0.5" stroke-opacity="0.15" points="45.3813,22 315.924,22" stroke-linecap="butt" fill="none" stroke="#262626" stroke-linejoin="miter" stroke-dasharray="16,0"/>
   <polyline stroke-width="0.5" points="45.3813,259.823 48.0822,259.823" stroke-linecap="butt" fill="none" stroke="#262626" stroke-linejoin="miter"/>
   <polyline stroke-width="0.5" points="315.924,259.823 313.223,259.823" stroke-linecap="butt" fill="none" stroke="#262626" stroke-linejoin="miter"/>
   <polyline stroke-width="0.5" points="45.3813,200.367 48.0822,200.367" stroke-linecap="butt" fill="none" stroke="#262626" stroke-linejoin="miter"/>
   <polyline stroke-width="0.5" points="315.924,200.367 313.223,200.367" stroke-linecap="butt" fill="none" stroke="#262626" stroke-linejoin="miter"/>
   <polyline stroke-width="0.5" points="45.3813,140.912 48.0822,140.912" stroke-linecap="butt" fill="none" stroke="#262626" stroke-linejoin="miter"/>
   <polyline stroke-width="0.5" points="315.924,140.912 313.223,140.912" stroke-linecap="butt" fill="none" stroke="#262626" stroke-linejoin="miter"/>
   <polyline stroke-width="0.5" points="45.3813,81.4558 48.0822,81.4558" stroke-linecap="butt" fill="none" stroke="#262626" stroke-linejoin="miter"/>
   <polyline stroke-width="0.5" points="315.924,81.4558 313.223,81.4558" stroke-linecap="butt" fill="none" stroke="#262626" stroke-linejoin="miter"/>
   <polyline stroke-width="0.5" points="45.3813,22 48.0822,22" stroke-linecap="butt" fill="none" stroke="#262626" stroke-linejoin="miter"/>
   <polyline stroke-width="0.5" points="315.924,22 313.223,22" stroke-linecap="butt" fill="none" stroke="#262626" stroke-linejoin="miter"/>
   <text xml:space="preserve" font-weight="normal" font-style="normal" font-size="10" transform="translate(16.3898,263.823) rotate(-0,24,-4)" font-family="FreeSans">
    <tspan y="-0" x="0 3 9 12 18 " fill="rgb(38,38,38)">-0.15</tspan>
   </text>
   <text xml:space="preserve" font-weight="normal" font-style="normal" font-size="10" transform="translate(22.3898,204.367) rotate(-0,18,-4)" font-family="FreeSans">
    <tspan y="-0" x="0 3 9 12 " fill="rgb(38,38,38)">-0.1</tspan>
   </text>
   <text xml:space="preserve" font-weight="normal" font-style="normal" font-size="10" transform="translate(16.3898,144.912) rotate(-0,24,-4)" font-family="FreeSans">
    <tspan y="-0" x="0 3 9 12 18 " fill="rgb(38,38,38)">-0.05</tspan>
   </text>
   <text xml:space="preserve" font-weight="normal" font-style="normal" font-size="10" transform="translate(34.3898,85.4558) rotate(-0,6,-4)" font-family="FreeSans">
    <tspan y="-0" x="0 " fill="rgb(38,38,38)">0</tspan>
   </text>
   <text xml:space="preserve" font-weight="normal" font-style="normal" font-size="10" transform="translate(19.3898,26) rotate(-0,21,-4)" font-family="FreeSans">
    <tspan y="-0" x="0 6 9 15 " fill="rgb(38,38,38)">0.05</tspan>
   </text>
   <polyline stroke-width="0.5" points="45.3813,259.823 315.924,259.823" stroke-linecap="square" fill="none" stroke="#262626" stroke-linejoin="miter" stroke-dasharray="16,0"/>
   <polyline stroke-width="0.5" points="45.3813,22 315.924,22" stroke-linecap="square" fill="none" stroke="#262626" stroke-linejoin="miter" stroke-dasharray="16,0"/>
   <polyline stroke-width="0.5" points="45.3813,259.823 45.3813,22" stroke-linecap="square" fill="none" stroke="#262626" stroke-linejoin="miter" stroke-dasharray="16,0"/>
   <polyline stroke-width="0.5" points="315.924,259.823 315.924,22" stroke-linecap="square" fill="none" stroke="#262626" stroke-linejoin="miter" stroke-dasharray="16,0"/>
   <text xml:space="preserve" font-weight="normal" font-style="normal" font-size="11" transform="translate(157.153,292.318) rotate(-0,23.5,-12)" font-family="FreeSans">
    <tspan y="-3" x="0 7 13 22 28 34 38 43 " fill="rgb(38,38,38)">Tempo(s)</tspan>
   </text>
   <text xml:space="preserve" font-weight="normal" font-style="normal" font-size="11" transform="translate(-17.6102,140.912) rotate(-90,29,0)" font-family="FreeSans">
    <tspan y="-1" x="0 7 13 15 21 27 29 35 41 47 53 " fill="rgb(38,38,38)">Velocidades</tspan>
   </text>
   <text xml:space="preserve" font-weight="bold" font-style="normal" font-size="11" transform="translate(61.6525,12) rotate(-0,119,0)" font-family="FreeSans">
    <tspan y="-3" x="0 7 10 20 27 30 36 42 48 55 58 61 68 74 78 81 87 93 99 102 108 111 118 124 127 133 139 143 149 156 163 166 173 176 185 192 198 204 208 214 220 227 234 " fill="rgb(0,0,0)">Simulação: Variáveis de estado X Observador</tspan>
   </text>
   <polyline stroke-width="0.5" points="45.3813,81.4558 47.7775,80.1635 50.1738,76.2658 52.57,69.5815 54.9663,62.2154 57.3625,55.1046 59.7587,48.8967 62.1549,43.9229 64.5512,40.3193 66.9474,38.0895 69.3436,37.1527 71.7399,37.3761 74.1361,38.5984 76.5323,40.6458 78.9286,43.3436 81.3248,46.5243 83.721,50.0323 86.1173,53.7275 88.5135,57.4874 90.9097,61.2075 93.306,64.8013 95.7022,68.2 98.0984,71.3512 100.495,74.2174 102.891,76.7749 105.287,79.0118 107.683,80.9261 110.08,82.5246 112.476,83.8209 114.872,84.8338 117.268,85.5863 119.665,86.104 122.061,86.414 124.457,86.5441 126.853,86.522 129.249,86.3744 131.646,86.1266 134.042,85.8022 136.438,85.4226 138.834,85.007 141.231,84.5723 143.627,84.1328 146.023,83.7005 148.419,83.2852 150.816,82.8946 153.212,82.5345 155.608,82.2088 158.004,81.9198 160.4,81.6687 162.797,81.4553 165.193,81.2786 167.589,81.1368 169.985,81.0276 172.382,80.948 174.778,80.8951 177.174,80.8656 179.57,80.8563 181.967,80.8638 184.363,80.8852 186.759,80.9174 189.155,80.9579 191.552,81.0041 193.948,81.0539 196.344,81.1054 198.74,81.157 201.136,81.2073 203.533,81.2553 205.929,81.3002 208.325,81.3414 210.721,81.3783 213.118,81.411 215.514,81.4391 217.91,81.4628 220.306,81.4823 222.703,81.4978 225.099,81.5095 227.495,81.5178 229.891,81.5232 232.287,81.5258 234.684,81.5263 237.08,81.5249 239.476,81.5219 241.872,81.5178 244.269,81.5128 246.665,81.5072 249.061,81.5012 251.457,81.4952 253.854,81.4891 256.25,81.4833 258.646,81.4777 261.042,81.4726 263.439,81.4679 265.835,81.4637 268.231,81.46 270.627,81.4569 273.023,81.4542 275.42,81.4521 277.816,81.4504 280.212,81.4492 282.608,81.4483 285.005,81.4478" stroke-linecap="butt" fill="none" stroke="#0071bc" stroke-linejoin="round"/>
   <polyline stroke-width="0.5" points="45.3813,81.4558 47.7775,102.446 50.1738,193.139 52.57,108.56 54.9663,74.8098 57.3625,50.9809 59.7587,38.8907 62.1549,33.8679 64.5512,33.6562 66.9474,36.5029 69.3436,41.2139 71.7399,46.9463 74.1361,53.1108 76.5323,59.2971 78.9286,65.2243 81.3248,70.7063 83.721,75.6265 86.1173,79.9206 88.5135,83.563 90.9097,86.5569 93.306,88.9271 95.7022,90.7131 98.0984,91.9651 100.495,92.74 102.891,93.0978 105.287,93.0997 107.683,92.806 110.08,92.2743 112.476,91.5587 114.872,90.7089 117.268,89.7693 119.665,88.7794 122.061,87.7729 124.457,86.7783 126.853,85.819 129.249,84.9133 131.646,84.075 134.042,83.3141 136.438,82.6366 138.834,82.0454 141.231,81.5409 143.627,81.1209 146.023,80.7817 148.419,80.518 150.816,80.3236 153.212,80.1915 155.608,80.1144 158.004,80.0848 160.4,80.0952 162.797,80.1386 165.193,80.2082 167.589,80.2976 169.985,80.4013 172.382,80.514 174.778,80.6314 177.174,80.7496 179.57,80.8656 181.967,80.9766 184.363,81.0808 186.759,81.1767 189.155,81.2632 191.552,81.3398 193.948,81.4061 196.344,81.4623 198.74,81.5087 201.136,81.5458 203.533,81.5741 205.929,81.5946 208.325,81.6081 210.721,81.6153 213.118,81.6172 215.514,81.6147 217.91,81.6085 220.306,81.5995 222.703,81.5884 225.099,81.5758 227.495,81.5624 229.891,81.5485 232.287,81.5346 234.684,81.5211 237.08,81.5083 239.476,81.4963 241.872,81.4854 244.269,81.4756 246.665,81.4669 249.061,81.4595 251.457,81.4532 253.854,81.4481 256.25,81.4441 258.646,81.4411 261.042,81.4389 263.439,81.4376 265.835,81.4369 268.231,81.4369 270.627,81.4373 273.023,81.4382 275.42,81.4393 277.816,81.4407 280.212,81.4422 282.608,81.4438 285.005,81.4454" stroke-linecap="butt" fill="none" stroke="#d85218" stroke-linejoin="round"/>
   <polyline stroke-width="0.5" points="45.3813,81.4558 47.7775,80.4975 50.1738,76.1777 52.57,69.4784 54.9663,61.9507 57.3625,54.6754 59.7587,48.3053 62.1549,43.1895 64.5512,39.4715 66.9474,37.1584 69.3436,36.1695 71.7399,36.3702 74.1361,37.5963 76.5323,39.6704 78.9286,42.4139 81.3248,45.6552 83.721,49.235 86.1173,53.0096 88.5135,56.8533 90.9097,60.6588 93.306,64.3372 95.7022,67.8177 98.0984,71.0463 100.495,73.9844 102.891,76.6074 105.287,78.9027 107.683,80.8682 110.08,82.5105 112.476,83.8435 114.872,84.8862 117.268,85.662 119.665,86.1971 122.061,86.5191 124.457,86.6565 126.853,86.6375 129.249,86.4895 131.646,86.2385 134.042,85.9086 136.438,85.5217 138.834,85.0976 141.231,84.6535 143.627,84.204 146.023,83.7618 148.419,83.3367 150.816,82.9366 153.212,82.5676 155.608,82.2336 158.004,81.9373 160.4,81.6795 162.797,81.4604 165.193,81.2788 167.589,81.133 169.985,81.0205 172.382,80.9384 174.778,80.8837 177.174,80.8529 179.57,80.8429 181.967,80.8502 184.363,80.8717 186.759,80.9044 189.155,80.9456 191.552,80.9927 193.948,81.0436 196.344,81.0962 198.74,81.1489 201.136,81.2004 203.533,81.2496 205.929,81.2956 208.325,81.3378 210.721,81.3757 213.118,81.4092 215.514,81.438 217.91,81.4624 220.306,81.4825 222.703,81.4984 225.099,81.5104 227.495,81.519 229.891,81.5246 232.287,81.5274 234.684,81.5279 237.08,81.5265 239.476,81.5235 241.872,81.5193 244.269,81.5142 246.665,81.5085 249.061,81.5024 251.457,81.4962 253.854,81.49 256.25,81.484 258.646,81.4784 261.042,81.4731 263.439,81.4683 265.835,81.464 268.231,81.4602 270.627,81.457 273.023,81.4543 275.42,81.4521 277.816,81.4503 280.212,81.4491 282.608,81.4482 285.005,81.4476" stroke-linecap="butt" fill="none" stroke="#ecb01f" stroke-linejoin="round"/>
   <polyline stroke-width="0.5" points="45.3813,81.4558 47.7775,229.982 50.1738,170.456 52.57,112.526 54.9663,73.8459 57.3625,50.5571 59.7587,37.9951 62.1549,32.6911 64.5512,32.2092 66.9474,34.8462 69.3436,39.4066 71.7399,45.0485 74.1361,51.1782 76.5323,57.3795 78.9286,63.3646 81.3248,68.9394 83.721,73.98 86.1173,78.4147 88.5135,82.2113 90.9097,85.367 93.306,87.901 95.7022,89.8488 98.0984,91.2567 100.495,92.1785 102.891,92.6723 105.287,92.7977 107.683,92.6139 110.08,92.1781 112.476,91.5444 114.872,90.7626 117.268,89.8782 119.665,88.931 122.061,87.9561 124.457,86.983 126.853,86.0362 129.249,85.1353 131.646,84.2954 134.042,83.5275 136.438,82.8387 138.834,82.2331 141.231,81.7118 143.627,81.2736 146.023,80.9153 148.419,80.6325 150.816,80.4193 153.212,80.2692 155.608,80.1752 158.004,80.1301 160.4,80.1265 162.797,80.1575 165.193,80.2163 167.589,80.2966 169.985,80.3927 172.382,80.4995 174.778,80.6122 177.174,80.7272 179.57,80.8409 181.967,80.9508 184.363,81.0547 186.759,81.151 189.155,81.2385 191.552,81.3165 193.948,81.3846 196.344,81.4429 198.74,81.4914 201.136,81.5307 203.533,81.5614 205.929,81.584 208.325,81.5995 210.721,81.6087 213.118,81.6124 215.514,81.6115 217.91,81.6067 220.306,81.5989 222.703,81.5888 225.099,81.5771 227.495,81.5643 229.891,81.5509 232.287,81.5374 234.684,81.5241 237.08,81.5113 239.476,81.4994 241.872,81.4884 244.269,81.4784 246.665,81.4696 249.061,81.4619 251.457,81.4555 253.854,81.4501 256.25,81.4458 258.646,81.4425 261.042,81.4401 263.439,81.4385 265.835,81.4377 268.231,81.4374 270.627,81.4377 273.023,81.4383 275.42,81.4393 277.816,81.4406 280.212,81.442 282.608,81.4436 285.005,81.4451" stroke-linecap="butt" fill="none" stroke="#7d2e8d" stroke-linejoin="round"/>
  </g>
  <clipPath id="cp00349292">
   <polygon points="0,292 349,292 349,0 0,0"/>
  </clipPath>
  <g clip-path="url(#cp00349292)">
   <polygon shape-rendering="crispEdges" points="157.337,87.0105 308.206,87.0105 308.206,29.7173 157.337,29.7173" fill="#ffffff"/>
   <polyline stroke-width="0.5" points="157.337,87.0105 308.206,87.0105" stroke-linecap="square" fill="none" stroke="#262626" stroke-linejoin="miter" stroke-dasharray="16,0"/>
   <polyline stroke-width="0.5" points="157.337,29.7173 308.206,29.7173" stroke-linecap="square" fill="none" stroke="#262626" stroke-linejoin="miter" stroke-dasharray="16,0"/>
   <polyline stroke-width="0.5" points="157.337,87.0105 157.337,29.7173" stroke-linecap="square" fill="none" stroke="#262626" stroke-linejoin="miter" stroke-dasharray="16,0"/>
   <polyline stroke-width="0.5" points="308.206,87.0105 308.206,29.7173" stroke-linecap="square" fill="none" stroke="#262626" stroke-linejoin="miter" stroke-dasharray="16,0"/>
   <polyline stroke-width="0.5" points="161.196,38.0759 180.489,38.0759" stroke-linecap="butt" fill="none" stroke="#0071bc" stroke-linejoin="round"/>
   <text xml:space="preserve" font-weight="normal" font-style="normal" font-size="9" transform="translate(184.348,42.5759) rotate(-0,-0,-4.5)" font-family="FreeSans">
    <tspan y="-1" x="0 6 11 13 18 23 25 30 35 40 45 47 52 57 59 64 69 71 76 78 83 88 92 97 100 104 109 114 " fill="rgb(0,0,0)">Velocidade da bola observada</tspan>
   </text>
   <polyline stroke-width="0.5" points="161.196,51.4345 180.489,51.4345" stroke-linecap="butt" fill="none" stroke="#d85218" stroke-linejoin="round"/>
   <text xml:space="preserve" font-weight="normal" font-style="normal" font-size="9" transform="translate(184.348,56.4345) rotate(-0,-0,-5)" font-family="FreeSans">
    <tspan y="-2" x="0 6 11 13 18 23 25 30 35 40 45 47 52 57 62 67 69 74 77 79 84 89 93 98 101 105 110 115 " fill="rgb(0,0,0)">Velocidade ângular observada</tspan>
   </text>
   <polyline stroke-width="0.5" points="161.196,64.7932 180.489,64.7932" stroke-linecap="butt" fill="none" stroke="#ecb01f" stroke-linejoin="round"/>
   <text xml:space="preserve" font-weight="normal" font-style="normal" font-size="9" transform="translate(184.348,69.2932) rotate(-0,-0,-4.5)" font-family="FreeSans">
    <tspan y="-1" x="0 6 11 13 18 23 25 30 35 40 45 47 52 57 59 64 69 71 " fill="rgb(0,0,0)">Velocidade da bola</tspan>
   </text>
   <polyline stroke-width="0.5" points="161.196,78.1518 180.489,78.1518" stroke-linecap="butt" fill="none" stroke="#7d2e8d" stroke-linejoin="round"/>
   <text xml:space="preserve" font-weight="normal" font-style="normal" font-size="9" transform="translate(184.348,83.1518) rotate(-0,-0,-5)" font-family="FreeSans">
    <tspan y="-2" x="0 6 11 13 18 23 25 30 35 40 45 47 52 57 62 67 69 74 " fill="rgb(0,0,0)">Velocidade ângular</tspan>
   </text>
  </g>
 </g>
</svg>
