<?xml version='1.0' encoding='UTF-8' standalone='no'?>
<svg height="324pt" xmlns:xlink="http://www.w3.org/1999/xlink" width="384pt" xmlns="http://www.w3.org/2000/svg" viewBox="0 0 384 324">
 <title>gl2ps_renderer figure</title>
 <desc>
Creator: GL2PS 1.4.2, (C) 1999-2020 C. Geuzaine
For: Octave
CreationDate: Sat Nov 12 14:55:22 2022
</desc>
 <defs/>
 <polygon points="0,0 384,0 384,324 0,324" fill="#ffffff"/>
 <g>
  <polygon points="0,324 384,324 384,0 0,0" shape-rendering="crispEdges" fill="#ffffff"/>
  <clipPath id="cp00384324">
   <polygon points="0,324 384,324 384,0 0,0"/>
  </clipPath>
  <g clip-path="url(#cp00384324)">
   <polygon points="49.9295,288.545 347.586,288.545 347.586,24.3156 49.9295,24.3156" shape-rendering="crispEdges" fill="#ffffff"/>
   <polyline stroke-opacity="0.15" points="49.9295,288.545 49.9295,24.3156" stroke-width="0.5" stroke-dasharray="16,0" stroke="#262626" fill="none" stroke-linecap="butt" stroke-linejoin="miter"/>
   <polyline stroke-opacity="0.15" points="98.6828,288.545 98.6828,24.3156" stroke-width="0.5" stroke-dasharray="16,0" stroke="#262626" fill="none" stroke-linecap="butt" stroke-linejoin="miter"/>
   <polyline stroke-opacity="0.15" points="147.436,288.545 147.436,24.3156" stroke-width="0.5" stroke-dasharray="16,0" stroke="#262626" fill="none" stroke-linecap="butt" stroke-linejoin="miter"/>
   <polyline stroke-opacity="0.15" points="196.189,288.545 196.189,24.3156" stroke-width="0.5" stroke-dasharray="16,0" stroke="#262626" fill="none" stroke-linecap="butt" stroke-linejoin="miter"/>
   <polyline stroke-opacity="0.15" points="244.943,288.545 244.943,24.3156" stroke-width="0.5" stroke-dasharray="16,0" stroke="#262626" fill="none" stroke-linecap="butt" stroke-linejoin="miter"/>
   <polyline stroke-opacity="0.15" points="293.696,288.545 293.696,24.3156" stroke-width="0.5" stroke-dasharray="16,0" stroke="#262626" fill="none" stroke-linecap="butt" stroke-linejoin="miter"/>
   <polyline stroke-opacity="0.15" points="342.449,288.545 342.449,24.3156" stroke-width="0.5" stroke-dasharray="16,0" stroke="#262626" fill="none" stroke-linecap="butt" stroke-linejoin="miter"/>
   <polyline points="49.9295,288.545 49.9295,285.566" stroke-width="0.5" stroke="#262626" fill="none" stroke-linecap="butt" stroke-linejoin="miter"/>
   <polyline points="49.9295,24.3156 49.9295,27.2947" stroke-width="0.5" stroke="#262626" fill="none" stroke-linecap="butt" stroke-linejoin="miter"/>
   <polyline points="98.6828,288.545 98.6828,285.566" stroke-width="0.5" stroke="#262626" fill="none" stroke-linecap="butt" stroke-linejoin="miter"/>
   <polyline points="98.6828,24.3156 98.6828,27.2947" stroke-width="0.5" stroke="#262626" fill="none" stroke-linecap="butt" stroke-linejoin="miter"/>
   <polyline points="147.436,288.545 147.436,285.566" stroke-width="0.5" stroke="#262626" fill="none" stroke-linecap="butt" stroke-linejoin="miter"/>
   <polyline points="147.436,24.3156 147.436,27.2947" stroke-width="0.5" stroke="#262626" fill="none" stroke-linecap="butt" stroke-linejoin="miter"/>
   <polyline points="196.189,288.545 196.189,285.566" stroke-width="0.5" stroke="#262626" fill="none" stroke-linecap="butt" stroke-linejoin="miter"/>
   <polyline points="196.189,24.3156 196.189,27.2947" stroke-width="0.5" stroke="#262626" fill="none" stroke-linecap="butt" stroke-linejoin="miter"/>
   <polyline points="244.943,288.545 244.943,285.566" stroke-width="0.5" stroke="#262626" fill="none" stroke-linecap="butt" stroke-linejoin="miter"/>
   <polyline points="244.943,24.3156 244.943,27.2947" stroke-width="0.5" stroke="#262626" fill="none" stroke-linecap="butt" stroke-linejoin="miter"/>
   <polyline points="293.696,288.545 293.696,285.566" stroke-width="0.5" stroke="#262626" fill="none" stroke-linecap="butt" stroke-linejoin="miter"/>
   <polyline points="293.696,24.3156 293.696,27.2947" stroke-width="0.5" stroke="#262626" fill="none" stroke-linecap="butt" stroke-linejoin="miter"/>
   <polyline points="342.449,288.545 342.449,285.566" stroke-width="0.5" stroke="#262626" fill="none" stroke-linecap="butt" stroke-linejoin="miter"/>
   <polyline points="342.449,24.3156 342.449,27.2947" stroke-width="0.5" stroke="#262626" fill="none" stroke-linecap="butt" stroke-linejoin="miter"/>
   <text font-family="FreeSans" font-size="10" font-weight="normal" font-style="normal" transform="translate(46.9295,304.051) rotate(-0,3,-8)" xml:space="preserve">
    <tspan y="-0" x="0 " fill="rgb(38,38,38)">0</tspan>
   </text>
   <text font-family="FreeSans" font-size="10" font-weight="normal" font-style="normal" transform="translate(91.1828,304.051) rotate(-0,7.5,-8)" xml:space="preserve">
    <tspan y="-0" x="0 6 9 " fill="rgb(38,38,38)">0.5</tspan>
   </text>
   <text font-family="FreeSans" font-size="10" font-weight="normal" font-style="normal" transform="translate(144.436,304.051) rotate(-0,3,-8)" xml:space="preserve">
    <tspan y="-0" x="0 " fill="rgb(38,38,38)">1</tspan>
   </text>
   <text font-family="FreeSans" font-size="10" font-weight="normal" font-style="normal" transform="translate(188.689,304.051) rotate(-0,7.5,-8)" xml:space="preserve">
    <tspan y="-0" x="0 6 9 " fill="rgb(38,38,38)">1.5</tspan>
   </text>
   <text font-family="FreeSans" font-size="10" font-weight="normal" font-style="normal" transform="translate(241.943,304.051) rotate(-0,3,-8)" xml:space="preserve">
    <tspan y="-0" x="0 " fill="rgb(38,38,38)">2</tspan>
   </text>
   <text font-family="FreeSans" font-size="10" font-weight="normal" font-style="normal" transform="translate(286.196,304.051) rotate(-0,7.5,-8)" xml:space="preserve">
    <tspan y="-0" x="0 6 9 " fill="rgb(38,38,38)">2.5</tspan>
   </text>
   <text font-family="FreeSans" font-size="10" font-weight="normal" font-style="normal" transform="translate(339.449,304.051) rotate(-0,3,-8)" xml:space="preserve">
    <tspan y="-0" x="0 " fill="rgb(38,38,38)">3</tspan>
   </text>
   <polyline stroke-opacity="0.15" points="49.9295,233.946 347.586,233.946" stroke-width="0.5" stroke-dasharray="16,0" stroke="#262626" fill="none" stroke-linecap="butt" stroke-linejoin="miter"/>
   <polyline stroke-opacity="0.15" points="49.9295,172.669 347.586,172.669" stroke-width="0.5" stroke-dasharray="16,0" stroke="#262626" fill="none" stroke-linecap="butt" stroke-linejoin="miter"/>
   <polyline stroke-opacity="0.15" points="49.9295,111.391 347.586,111.391" stroke-width="0.5" stroke-dasharray="16,0" stroke="#262626" fill="none" stroke-linecap="butt" stroke-linejoin="miter"/>
   <polyline stroke-opacity="0.15" points="49.9295,50.1135 347.586,50.1135" stroke-width="0.5" stroke-dasharray="16,0" stroke="#262626" fill="none" stroke-linecap="butt" stroke-linejoin="miter"/>
   <polyline points="49.9295,233.946 52.9027,233.946" stroke-width="0.5" stroke="#262626" fill="none" stroke-linecap="butt" stroke-linejoin="miter"/>
   <polyline points="347.586,233.946 344.613,233.946" stroke-width="0.5" stroke="#262626" fill="none" stroke-linecap="butt" stroke-linejoin="miter"/>
   <polyline points="49.9295,172.669 52.9027,172.669" stroke-width="0.5" stroke="#262626" fill="none" stroke-linecap="butt" stroke-linejoin="miter"/>
   <polyline points="347.586,172.669 344.613,172.669" stroke-width="0.5" stroke="#262626" fill="none" stroke-linecap="butt" stroke-linejoin="miter"/>
   <polyline points="49.9295,111.391 52.9027,111.391" stroke-width="0.5" stroke="#262626" fill="none" stroke-linecap="butt" stroke-linejoin="miter"/>
   <polyline points="347.586,111.391 344.613,111.391" stroke-width="0.5" stroke="#262626" fill="none" stroke-linecap="butt" stroke-linejoin="miter"/>
   <polyline points="49.9295,50.1135 52.9027,50.1135" stroke-width="0.5" stroke="#262626" fill="none" stroke-linecap="butt" stroke-linejoin="miter"/>
   <polyline points="347.586,50.1135 344.613,50.1135" stroke-width="0.5" stroke="#262626" fill="none" stroke-linecap="butt" stroke-linejoin="miter"/>
   <text font-family="FreeSans" font-size="10" font-weight="normal" font-style="normal" transform="translate(38.9353,237.946) rotate(-0,6,-4)" xml:space="preserve">
    <tspan y="-0" x="0 " fill="rgb(38,38,38)">0</tspan>
   </text>
   <text font-family="FreeSans" font-size="10" font-weight="normal" font-style="normal" transform="translate(38.9353,176.669) rotate(-0,6,-4)" xml:space="preserve">
    <tspan y="-0" x="0 " fill="rgb(38,38,38)">2</tspan>
   </text>
   <text font-family="FreeSans" font-size="10" font-weight="normal" font-style="normal" transform="translate(38.9353,115.391) rotate(-0,6,-4)" xml:space="preserve">
    <tspan y="-0" x="0 " fill="rgb(38,38,38)">4</tspan>
   </text>
   <text font-family="FreeSans" font-size="10" font-weight="normal" font-style="normal" transform="translate(38.9353,54.1135) rotate(-0,6,-4)" xml:space="preserve">
    <tspan y="-0" x="0 " fill="rgb(38,38,38)">6</tspan>
   </text>
   <polyline points="49.9295,288.545 347.586,288.545" stroke-width="0.5" stroke-dasharray="16,0" stroke="#262626" fill="none" stroke-linecap="square" stroke-linejoin="miter"/>
   <polyline points="49.9295,24.3156 347.586,24.3156" stroke-width="0.5" stroke-dasharray="16,0" stroke="#262626" fill="none" stroke-linecap="square" stroke-linejoin="miter"/>
   <polyline points="49.9295,288.545 49.9295,24.3156" stroke-width="0.5" stroke-dasharray="16,0" stroke="#262626" fill="none" stroke-linecap="square" stroke-linejoin="miter"/>
   <polyline points="347.586,288.545 347.586,24.3156" stroke-width="0.5" stroke-dasharray="16,0" stroke="#262626" fill="none" stroke-linecap="square" stroke-linejoin="miter"/>
   <text font-family="FreeSans" font-size="11" font-weight="normal" font-style="normal" transform="translate(173.758,321.051) rotate(-0,25,-12)" xml:space="preserve">
    <tspan y="-3" x="0 7 13 22 28 34 37 41 46 " fill="rgb(38,38,38)">Tempo (s)</tspan>
   </text>
   <text font-family="FreeSans" font-size="11" font-weight="normal" font-style="normal" transform="translate(-22.0647,156.43) rotate(-90,56,0)" xml:space="preserve">
    <tspan y="-3" x="0 7 13 19 25 27 33 36 42 48 51 57 59 65 71 77 81 87 91 97 103 108 " fill="rgb(38,38,38)">Ângulo da placa(graus)</tspan>
   </text>
   <text font-family="FreeSans" font-size="11" font-weight="bold" font-style="normal" transform="translate(134.258,14.3156) rotate(-0,64.5,0)" xml:space="preserve">
    <tspan y="-3" x="0 8 14 24 31 37 40 43 51 58 65 72 75 82 85 92 98 101 108 111 117 123 " fill="rgb(0,0,0)">Rampa: Ângulo da placa</tspan>
   </text>
   <polyline points="49.9295,266.73 55.8617,276.534 61.9879,263.36 68.0903,178.184 74.169,153.979 80.2032,179.716 86.0556,191.052 91.9418,196.567 98.2626,183.699 104.487,177.571 110.613,172.669 116.643,181.86 122.769,174.507 128.896,167.46 134.926,170.83 141.83,172.056 147.777,166.541 153.905,160.107 160.13,150.609 166.545,152.754 173.352,144.175 179.479,139.885 185.606,146.013 191.735,135.902 198.15,132.532 204.674,132.532 211.679,129.162 217.608,123.953 223.738,122.115 229.914,115.068 236.091,112.31 242.953,112.923 249.323,99.7484 255.255,101.28 261.769,99.7484 268.282,94.5398 274.611,99.7484 280.64,96.3781 286.767,88.412 292.796,70.3351 299.139,81.9779 305.57,72.4798 311.502,70.9479 317.39,63.9009 323.322,64.8201 329.351,62.369 335.333,54.4029 341.265,48.8879 347.586,36.326" stroke-width="0.5" stroke="#ff0000" fill="none" stroke-linecap="butt" stroke-linejoin="round"/>
   <polyline points="49.9295,266.73 56.1307,238.044 62.3319,210.429 68.5331,193.739 74.7343,186.069 80.9355,182.973 87.1367,181.201 93.3378,179.248 99.539,176.764 105.74,173.877 111.941,170.798 118.143,167.67 124.344,164.556 130.545,161.468 136.746,158.398 142.947,155.335 149.149,152.274 155.35,149.213 161.551,146.15 167.752,143.086 173.953,140.022 180.154,136.958 186.356,133.894 192.557,130.83 198.758,127.766 204.959,124.702 211.16,121.639 217.362,118.575 223.563,115.511 229.764,112.447 235.965,109.383 242.166,106.319 248.368,103.255 254.569,100.191 260.77,97.1276 266.971,94.0637 273.172,90.9998 279.373,87.9359 285.575,84.872 291.776,81.8082 297.977,78.7443 304.178,75.6804 310.379,72.6165 316.581,69.5526 322.782,66.4887 328.983,63.4248 335.184,60.361 341.385,57.2971 347.586,54.2332" stroke-width="0.5" stroke="#0071bc" fill="none" stroke-linecap="butt" stroke-linejoin="round"/>
   <polyline points="49.9295,196.567 56.1307,193.503 62.3319,190.439 68.5331,187.375 74.7343,184.312 80.9355,181.248 87.1367,178.184 93.3378,175.12 99.539,172.056 105.74,168.992 111.941,165.928 118.143,162.864 124.344,159.801 130.545,156.737 136.746,153.673 142.947,150.609 149.149,147.545 155.35,144.481 161.551,141.417 167.752,138.353 173.953,135.289 180.154,132.226 186.356,129.162 192.557,126.098 198.758,123.034 204.959,119.97 211.16,116.906 217.362,113.842 223.563,110.778 229.764,107.714 235.965,104.651 242.166,101.587 248.368,98.5228 254.569,95.459 260.77,92.3951 266.971,89.3312 273.172,86.2673 279.373,83.2034 285.575,80.1395 291.776,77.0757 297.977,74.0118 304.178,70.9479 310.379,67.884 316.581,64.8201 322.782,61.7562 328.983,58.6924 335.184,55.6284 341.385,52.5646 347.586,49.5007" stroke-width="0.5" stroke="#7f7f7f" fill="none" stroke-linecap="butt" stroke-linejoin="round"/>
   <polyline points="49.9295,196.567 55.8617,193.503 61.9879,190.439 68.0903,187.375 74.169,184.312 80.2032,181.248 86.0556,178.184 91.9418,175.12 98.2626,172.056 104.487,168.992 110.613,165.928 116.643,162.864 122.769,159.801 128.896,156.737 134.926,153.673 141.83,150.609 147.777,147.545 153.905,144.481 160.13,141.417 166.545,138.353 173.352,135.289 179.479,132.226 185.606,129.162 191.735,126.098 198.15,123.034 204.674,119.97 211.679,116.906 217.608,113.842 223.738,110.778 229.914,107.714 236.091,104.651 242.953,101.587 249.323,98.5228 255.255,95.459 261.769,92.3951 268.282,89.3312 274.611,86.2673 280.64,83.2034 286.767,80.1395 292.796,77.0757 299.139,74.0118 305.57,70.9479 311.502,67.884 317.39,64.8201 323.322,61.7562 329.351,58.6924 335.333,55.6284 341.265,52.5646 347.586,49.5007" stroke-width="0.5" stroke="#000000" fill="none" stroke-linecap="butt" stroke-linejoin="round"/>
  </g>
  <clipPath id="cp00384324">
   <polygon points="0,324 384,324 384,0 0,0"/>
  </clipPath>
  <g clip-path="url(#cp00384324)">
   <polygon points="265,72.6737 339.869,72.6737 339.869,32.0328 265,32.0328" shape-rendering="crispEdges" fill="#ffffff"/>
   <polyline points="265,72.6737 339.869,72.6737" stroke-width="0.5" stroke-dasharray="16,0" stroke="#262626" fill="none" stroke-linecap="square" stroke-linejoin="miter"/>
   <polyline points="265,32.0328 339.869,32.0328" stroke-width="0.5" stroke-dasharray="16,0" stroke="#262626" fill="none" stroke-linecap="square" stroke-linejoin="miter"/>
   <polyline points="265,72.6737 265,32.0328" stroke-width="0.5" stroke-dasharray="16,0" stroke="#262626" fill="none" stroke-linecap="square" stroke-linejoin="miter"/>
   <polyline points="339.869,72.6737 339.869,32.0328" stroke-width="0.5" stroke-dasharray="16,0" stroke="#262626" fill="none" stroke-linecap="square" stroke-linejoin="miter"/>
   <polyline points="268.859,39.9431 288.152,39.9431" stroke-width="0.5" stroke="#ff0000" fill="none" stroke-linecap="butt" stroke-linejoin="round"/>
   <text font-family="FreeSans" font-size="9" font-weight="normal" font-style="normal" transform="translate(292.011,43.9431) rotate(-0,-0,-4)" xml:space="preserve">
    <tspan y="-0" x="0 6 11 16 " fill="rgb(0,0,0)">Real</tspan>
   </text>
   <polyline points="268.859,52.3533 288.152,52.3533" stroke-width="0.5" stroke="#0071bc" fill="none" stroke-linecap="butt" stroke-linejoin="round"/>
   <text font-family="FreeSans" font-size="9" font-weight="normal" font-style="normal" transform="translate(292.011,56.8533) rotate(-0,-0,-4.5)" xml:space="preserve">
    <tspan y="-1" x="0 2 8 10 17 22 24 29 34 " fill="rgb(0,0,0)"> Simulado</tspan>
   </text>
   <polyline points="268.859,64.7635 288.152,64.7635" stroke-width="0.5" stroke="#7f7f7f" fill="none" stroke-linecap="butt" stroke-linejoin="round"/>
   <text font-family="FreeSans" font-size="9" font-weight="normal" font-style="normal" transform="translate(292.011,68.7635) rotate(-0,-0,-4)" xml:space="preserve">
    <tspan y="-0" x="0 6 11 14 19 22 27 32 37 39 " fill="rgb(0,0,0)">Referência</tspan>
   </text>
  </g>
 </g>
</svg>
