<?xml version='1.0' encoding='UTF-8' standalone='no'?>
<svg width="391pt" height="324pt" xmlns="http://www.w3.org/2000/svg" viewBox="0 0 391 324" xmlns:xlink="http://www.w3.org/1999/xlink">
 <title>gl2ps_renderer figure</title>
 <desc>
Creator: GL2PS 1.4.2, (C) 1999-2020 C. Geuzaine
For: Octave
CreationDate: Sat Nov 12 12:48:47 2022
</desc>
 <defs/>
 <polygon fill="#ffffff" points="0,0 391,0 391,324 0,324"/>
 <g>
  <polygon fill="#ffffff" points="0,324 391,324 391,0 0,0" shape-rendering="crispEdges"/>
  <clipPath id="cp00391324">
   <polygon points="0,324 391,324 391,0 0,0"/>
  </clipPath>
  <g clip-path="url(#cp00391324)">
   <polygon fill="#ffffff" points="50.9403,288.545 354.623,288.545 354.623,24.3156 50.9403,24.3156" shape-rendering="crispEdges"/>
   <polyline fill="none" stroke-linecap="butt" stroke-dasharray="16,0" points="50.9403,288.545 50.9403,24.3156" stroke-width="0.5" stroke="#262626" stroke-linejoin="miter" stroke-opacity="0.15"/>
   <polyline fill="none" stroke-linecap="butt" stroke-dasharray="16,0" points="126.861,288.545 126.861,24.3156" stroke-width="0.5" stroke="#262626" stroke-linejoin="miter" stroke-opacity="0.15"/>
   <polyline fill="none" stroke-linecap="butt" stroke-dasharray="16,0" points="202.781,288.545 202.781,24.3156" stroke-width="0.5" stroke="#262626" stroke-linejoin="miter" stroke-opacity="0.15"/>
   <polyline fill="none" stroke-linecap="butt" stroke-dasharray="16,0" points="278.702,288.545 278.702,24.3156" stroke-width="0.5" stroke="#262626" stroke-linejoin="miter" stroke-opacity="0.15"/>
   <polyline fill="none" stroke-linecap="butt" stroke-dasharray="16,0" points="354.623,288.545 354.623,24.3156" stroke-width="0.5" stroke="#262626" stroke-linejoin="miter" stroke-opacity="0.15"/>
   <polyline fill="none" stroke-linecap="butt" points="50.9403,288.545 50.9403,285.505" stroke-width="0.5" stroke="#262626" stroke-linejoin="miter"/>
   <polyline fill="none" stroke-linecap="butt" points="126.861,288.545 126.861,285.505" stroke-width="0.5" stroke="#262626" stroke-linejoin="miter"/>
   <polyline fill="none" stroke-linecap="butt" points="202.781,288.545 202.781,285.505" stroke-width="0.5" stroke="#262626" stroke-linejoin="miter"/>
   <polyline fill="none" stroke-linecap="butt" points="278.702,288.545 278.702,285.505" stroke-width="0.5" stroke="#262626" stroke-linejoin="miter"/>
   <polyline fill="none" stroke-linecap="butt" points="354.623,288.545 354.623,285.505" stroke-width="0.5" stroke="#262626" stroke-linejoin="miter"/>
   <text xml:space="preserve" transform="translate(41.9403,304.051) rotate(-0,9,-8)" font-family="FreeSans" font-style="normal" font-size="10" font-weight="normal">
    <tspan fill="rgb(38,38,38)" y="-0" x="0 3 9 12 ">-0.1</tspan>
   </text>
   <text xml:space="preserve" transform="translate(114.861,304.051) rotate(-0,12,-8)" font-family="FreeSans" font-style="normal" font-size="10" font-weight="normal">
    <tspan fill="rgb(38,38,38)" y="-0" x="0 3 9 12 18 ">-0.05</tspan>
   </text>
   <text xml:space="preserve" transform="translate(199.781,304.051) rotate(-0,3,-8)" font-family="FreeSans" font-style="normal" font-size="10" font-weight="normal">
    <tspan fill="rgb(38,38,38)" y="-0" x="0 ">0</tspan>
   </text>
   <text xml:space="preserve" transform="translate(268.202,304.051) rotate(-0,10.5,-8)" font-family="FreeSans" font-style="normal" font-size="10" font-weight="normal">
    <tspan fill="rgb(38,38,38)" y="-0" x="0 6 9 15 ">0.05</tspan>
   </text>
   <text xml:space="preserve" transform="translate(347.123,304.051) rotate(-0,7.5,-8)" font-family="FreeSans" font-style="normal" font-size="10" font-weight="normal">
    <tspan fill="rgb(38,38,38)" y="-0" x="0 6 9 ">0.1</tspan>
   </text>
   <polyline fill="none" stroke-linecap="butt" stroke-dasharray="16,0" points="50.9403,288.545 354.623,288.545" stroke-width="0.5" stroke="#262626" stroke-linejoin="miter" stroke-opacity="0.15"/>
   <polyline fill="none" stroke-linecap="butt" stroke-dasharray="16,0" points="50.9403,222.488 354.623,222.488" stroke-width="0.5" stroke="#262626" stroke-linejoin="miter" stroke-opacity="0.15"/>
   <polyline fill="none" stroke-linecap="butt" stroke-dasharray="16,0" points="50.9403,156.43 354.623,156.43" stroke-width="0.5" stroke="#262626" stroke-linejoin="miter" stroke-opacity="0.15"/>
   <polyline fill="none" stroke-linecap="butt" stroke-dasharray="16,0" points="50.9403,90.3729 354.623,90.3729" stroke-width="0.5" stroke="#262626" stroke-linejoin="miter" stroke-opacity="0.15"/>
   <polyline fill="none" stroke-linecap="butt" stroke-dasharray="16,0" points="50.9403,24.3156 354.623,24.3156" stroke-width="0.5" stroke="#262626" stroke-linejoin="miter" stroke-opacity="0.15"/>
   <polyline fill="none" stroke-linecap="butt" points="50.9403,288.545 53.9739,288.545" stroke-width="0.5" stroke="#262626" stroke-linejoin="miter"/>
   <polyline fill="none" stroke-linecap="butt" points="50.9403,222.488 53.9739,222.488" stroke-width="0.5" stroke="#262626" stroke-linejoin="miter"/>
   <polyline fill="none" stroke-linecap="butt" points="50.9403,156.43 53.9739,156.43" stroke-width="0.5" stroke="#262626" stroke-linejoin="miter"/>
   <polyline fill="none" stroke-linecap="butt" points="50.9403,90.3729 53.9739,90.3729" stroke-width="0.5" stroke="#262626" stroke-linejoin="miter"/>
   <polyline fill="none" stroke-linecap="butt" points="50.9403,24.3156 53.9739,24.3156" stroke-width="0.5" stroke="#262626" stroke-linejoin="miter"/>
   <text xml:space="preserve" transform="translate(27.9455,292.545) rotate(-0,18,-4)" font-family="FreeSans" font-style="normal" font-size="10" font-weight="normal">
    <tspan fill="rgb(38,38,38)" y="-0" x="0 3 9 12 ">-0.1</tspan>
   </text>
   <text xml:space="preserve" transform="translate(21.9455,226.488) rotate(-0,24,-4)" font-family="FreeSans" font-style="normal" font-size="10" font-weight="normal">
    <tspan fill="rgb(38,38,38)" y="-0" x="0 3 9 12 18 ">-0.05</tspan>
   </text>
   <text xml:space="preserve" transform="translate(39.9455,160.43) rotate(-0,6,-4)" font-family="FreeSans" font-style="normal" font-size="10" font-weight="normal">
    <tspan fill="rgb(38,38,38)" y="-0" x="0 ">0</tspan>
   </text>
   <text xml:space="preserve" transform="translate(24.9455,94.3729) rotate(-0,21,-4)" font-family="FreeSans" font-style="normal" font-size="10" font-weight="normal">
    <tspan fill="rgb(38,38,38)" y="-0" x="0 6 9 15 ">0.05</tspan>
   </text>
   <text xml:space="preserve" transform="translate(30.9455,28.3156) rotate(-0,15,-4)" font-family="FreeSans" font-style="normal" font-size="10" font-weight="normal">
    <tspan fill="rgb(38,38,38)" y="-0" x="0 6 9 ">0.1</tspan>
   </text>
   <polyline fill="none" stroke-linecap="square" stroke-dasharray="16,0" points="50.9403,288.545 354.623,288.545" stroke-width="0.5" stroke="#262626" stroke-linejoin="miter"/>
   <polyline fill="none" stroke-linecap="square" stroke-dasharray="16,0" points="50.9403,288.545 50.9403,24.3156" stroke-width="0.5" stroke="#262626" stroke-linejoin="miter"/>
   <text xml:space="preserve" transform="translate(159.781,321.051) rotate(-0,43,-12)" font-family="FreeSans" font-style="normal" font-size="11" font-weight="normal">
    <tspan fill="rgb(38,38,38)" y="-3" x="0 7 13 18 20 26 32 38 41 47 56 59 66 69 73 82 ">Posição em X (m)</tspan>
   </text>
   <text xml:space="preserve" transform="translate(-26.0545,156.43) rotate(-90,43,0)" font-family="FreeSans" font-style="normal" font-size="11" font-weight="normal">
    <tspan fill="rgb(38,38,38)" y="-3" x="0 7 13 18 20 26 32 38 41 47 56 59 66 69 73 82 ">Posição em Y (m)</tspan>
   </text>
   <text xml:space="preserve" transform="translate(155.781,14.3156) rotate(-0,47,0)" font-family="FreeSans" font-style="normal" font-size="11" font-weight="bold">
    <tspan fill="rgb(0,0,0)" y="-3" x="0 7 11 17 20 26 30 37 41 44 50 53 56 64 67 71 77 84 87 ">Trajetória: Círculo</tspan>
   </text>
   <polyline fill="none" stroke-linecap="butt" points="198.074,166.867 198.074,167.396 198.074,166.867 198.834,167.396 199.593,169.906 200.2,171.227 201.719,172.416 201.719,173.737 201.719,174.926 202.478,175.587 202.478,176.247 203.085,176.247 203.085,175.587 203.085,175.587 203.085,174.398 203.844,172.416 204.604,170.566 205.97,167.396 207.489,163.697 208.855,161.715 210.374,157.355 211.892,153.656 212.499,151.146 213.258,148.503 214.018,140.444 214.018,138.463 212.499,134.763 211.892,130.932 209.614,125.912 208.855,124.062 205.97,119.57 201.719,115.871 196.708,113.361 190.179,111.511 186.534,111.511 178.487,112.04 170.591,114.021 162.695,117.06 154.648,122.08 151.763,124.723 143.867,131.593 136.579,140.444 130.809,149.164 127.165,158.676 125.798,164.357 125.039,175.587 125.039,185.628 125.798,190.78 126.557,201.349 128.683,211.522 130.809,220.242 135.971,227.772 142.349,234.774 150.396,237.945 155.407,238.473 165.58,236.624 177.12,230.943 190.786,224.073 204.604,215.221 218.269,204.52 224.798,198.311 235.731,185.099 245.145,171.888 250.156,164.886 259.57,144.804 261.696,137.274 263.822,123.402 262.455,111.511 258.052,100.81 255.167,96.3181 248.03,88.127 237.098,82.446 216.903,78.7468 210.374,78.0862 202.478,78.7468 186.534,80.5964 170.591,84.4277 155.407,89.4481 140.982,95.6575 128.683,104.509 123.672,108.869 113.499,119.57 104.844,130.932 98.3147,143.483 96.1889,149.825 93.304,169.906 95.4297,182.589 99.0739,195.14 101.959,200.821 109.855,212.051 120.787,222.752 132.935,230.943 140.223,234.774 147.511,237.945 171.35,243.626 188.66,244.815 205.97,242.965 222.673,238.473 232.087,234.774 248.03,227.772 263.822,218.392 278.398,207.03 284.776,200.821 296.467,188.138 303.604,174.926 308.767,161.715 310.133,147.314 305.882,134.103 299.96,121.552 296.467,116.532 286.294,105.17 279.006,100.149 256.685,86.9379 248.03,84.4277 229.961,79.4074 210.374,76.2366 190.786,74.9155 171.35,76.2366 161.936,77.4257 143.867,82.446 128.683,89.4481 115.625,98.2998 109.095,103.849 99.6813,115.21 93.304,127.761 91.7856,134.763 93.9113,170.566 93.9113,170.566 99.6813,185.628 107.729,199.5 118.51,212.051 130.809,223.412 144.626,233.453 151.763,237.284 166.947,242.965 182.131,246.665 198.074,248.646 205.97,248.646 229.202,243.626 242.868,236.624 256.685,227.772 263.214,222.223 286.294,199.5 290.698,192.63 296.467,178.097 298.593,171.227 300.719,150.485 299.352,144.144 294.949,130.272 292.064,123.402 277.639,107.68 271.11,101.999 258.811,93.8079 243.627,85.6168 227.683,79.4074 219.788,76.8972 193.671,74.387 185.016,73.7265 167.706,73.7265 150.396,74.9155 135.212,79.4074 129.442,82.446 111.98,95.6575 107.729,101.338 100.44,112.04 95.4297,124.723 93.9113,131.593 94.6705,145.465 98.3147,159.865 104.085,173.077 111.373,186.949 120.028,200.16 125.798,206.502 138.097,217.203 151.155,228.433 165.58,237.284 179.246,244.154 194.43,248.646 201.719,249.175 215.384,248.646 229.961,245.476 235.731,242.305 250.156,235.963 262.455,226.583 271.869,214.032 279.765,200.821 284.776,186.288 289.938,169.906 291.305,163.036 292.823,145.993 282.65,117.721 282.65,117.721 269.592,99.4888 264.581,93.8079 250.156,84.4277 234.213,78.0862 226.317,75.5761 198.834,70.5557 189.419,69.8951 172.11,70.5557 154.648,74.9155 139.464,81.9176 132.935,85.6168 119.269,95.6575 109.095,107.019 104.844,114.021 98.3147,135.952 97.5555,142.955 96.7963,158.676" stroke-width="0.5" stroke="#ff0000" stroke-linejoin="round"/>
   <polyline fill="none" stroke-linecap="butt" points="198.074,166.867 198.102,166.419 197.529,166.344 196.737,167.013 196.103,168.597 195.951,171.084 196.531,174.334 198.02,178.122 200.522,182.179 204.07,186.219 208.63,189.956 214.105,193.123 220.35,195.486 227.173,196.849 234.35,197.063 241.633,196.03 248.762,193.703 255.473,190.085 261.51,185.233 266.634,179.246 270.629,172.267 273.311,164.475 274.536,156.077 274.199,147.305 272.244,138.404 268.66,129.626 263.486,121.223 256.807,113.44 248.752,106.504 239.492,100.623 229.235,95.9745 218.217,92.7062 206.701,90.9272 194.965,90.7077 183.296,92.0761 171.986,95.0185 161.316,99.4793 151.558,105.362 142.96,112.533 135.744,120.824 130.098,130.037 126.166,139.947 123.996,150.31 123.575,160.873 124.881,171.393 127.881,181.631 132.52,191.359 138.713,200.358 146.344,208.425 155.264,215.373 165.29,221.039 176.208,225.288 187.781,228.014 199.749,229.144 211.838,228.644 223.768,226.514 235.259,222.796 246.034,217.566 255.835,210.94 264.422,203.066 271.583,194.123 277.138,184.317 280.947,173.877 282.909,163.048 282.969,152.084 281.119,141.246 277.396,130.793 271.883,120.972 264.709,112.022 256.043,104.155 246.092,97.5636 235.092,92.4053 223.311,88.8056 211.032,86.8518 198.554,86.5915 186.18,88.0311 174.211,91.1359 162.94,95.8301 152.642,102 143.57,109.494 135.945,118.13 129.956,127.697 125.742,137.96 123.35,148.666 122.763,159.556 123.952,170.379 126.878,180.895 131.481,190.871 137.671,200.089 145.327,208.343 154.293,215.448 164.382,221.243 175.375,225.593 187.031,228.395 199.087,229.579 211.267,229.111 223.287,226.997 234.863,223.279 245.72,218.037 255.596,211.389 264.252,203.485 271.474,194.507 277.082,184.662 280.937,174.181 282.937,163.31 283.028,152.305 281.202,141.427 277.496,130.936 271.996,121.081 264.829,112.099 256.166,104.204 246.214,97.588 235.211,92.4088 223.423,88.7916 211.137,86.8237 198.649,86.5525 186.265,87.9841 174.286,91.0833 163.004,95.7744 152.696,101.943 143.613,109.437 135.979,118.075 129.981,127.645 125.76,137.912 123.361,148.622 122.768,159.517 123.951,170.345 126.873,180.866 131.473,190.847 137.661,200.069 145.315,208.327 154.279,215.437 164.367,221.235 175.361,225.588 187.017,228.393 199.074,229.579 211.254,229.113 223.275,227.001 234.852,223.284 245.71,218.043 255.588,211.395 264.245,203.492 271.468,194.513 277.078,184.669 280.933,174.188 282.934,163.316 283.026,152.311 281.201,141.432 277.496,130.94 271.996,121.085 264.83,112.102 256.167,104.207 246.215,97.5902 235.212,92.4104 223.425,88.7928 211.138,86.8245 198.651,86.5529 186.267,87.9842 174.287,91.0832 163.006,95.7741 152.697,101.942 143.615,109.437 135.98,118.074 129.982,127.644 125.761,137.911 123.362,148.622 122.768,159.516 123.952,170.344 126.873,180.865 131.473,190.846 137.661,200.068 145.315,208.327 154.279,215.436 164.367,221.235 175.361,225.588 187.017,228.393 199.074,229.579 211.254,229.113 223.274,227.001 234.852,223.284 245.71,218.043 255.588,211.395 264.245,203.492 271.468,194.513 277.078,184.669 280.933,174.188 282.934,163.316 283.026,152.311 281.201,141.433 277.496,130.941 271.996,121.085 264.83,112.102 256.167,104.207 246.215,97.5902 235.212,92.4105 223.425,88.7929 211.138,86.8246 198.651,86.553 186.267,87.9843 174.287,91.0832 163.006,95.7741 152.697,101.942 143.615,109.437 135.98,118.074 129.982,127.644 125.761,137.911 123.362,148.622 122.768,159.516 123.952,170.344" stroke-width="0.5" stroke="#0071bc" stroke-linejoin="round"/>
   <polyline fill="none" stroke-linecap="butt" points="202.781,235.699 217.033,234.723 230.934,231.819 244.142,227.059 256.331,220.56 267.202,212.482 276.487,203.023 283.956,192.418 289.427,180.926 292.764,168.831 293.886,156.43 292.764,144.03 289.427,131.935 283.956,120.443 276.487,109.837 267.202,100.379 256.331,92.3004 244.142,85.8012 230.934,81.0411 217.033,78.1374 202.781,77.1614 188.53,78.1374 174.629,81.0411 161.421,85.8012 149.231,92.3004 138.361,100.379 129.076,109.837 121.607,120.443 116.136,131.935 112.798,144.03 111.677,156.43 112.798,168.831 116.136,180.926 121.607,192.418 129.076,203.023 138.361,212.482 149.231,220.56 161.421,227.059 174.629,231.819 188.53,234.723 188.53,234.723 202.781,235.699 217.033,234.723 230.934,231.819 244.142,227.059 256.331,220.56 267.202,212.482 276.487,203.023 283.956,192.418 289.427,180.926 292.764,168.831 293.886,156.43 292.764,144.03 289.427,131.935 283.956,120.443 276.487,109.837 267.202,100.379 256.331,92.3004 244.142,85.8012 230.934,81.0411 217.033,78.1374 202.781,77.1614 188.53,78.1374 174.629,81.0411 161.421,85.8012 149.231,92.3004 138.361,100.379 129.076,109.837 121.607,120.443 116.136,131.935 112.798,144.03 111.677,156.43 112.798,168.831 116.136,180.926 121.607,192.418 129.076,203.023 138.361,212.482 149.231,220.56 161.421,227.059 174.629,231.819 188.53,234.723 188.53,234.723 202.781,235.699 217.033,234.723 230.934,231.819 244.142,227.059 256.331,220.56 267.202,212.482 276.487,203.023 283.956,192.418 289.427,180.926 292.764,168.831 293.886,156.43 292.764,144.03 289.427,131.935 283.956,120.443 276.487,109.837 267.202,100.379 256.331,92.3004 244.142,85.8012 230.934,81.0411 217.033,78.1374 202.781,77.1614 188.53,78.1374 174.629,81.0411 161.421,85.8012 149.231,92.3004 138.361,100.379 129.076,109.837 121.607,120.443 116.136,131.935 112.798,144.03 111.677,156.43 112.798,168.831 116.136,180.926 121.607,192.418 129.076,203.023 138.361,212.482 149.231,220.56 161.421,227.059 174.629,231.819 188.53,234.723 188.53,234.723 202.781,235.699 217.033,234.723 230.934,231.819 244.142,227.059 256.331,220.56 267.202,212.482 276.487,203.023 283.956,192.418 289.427,180.926 292.764,168.831 293.886,156.43 292.764,144.03 289.427,131.935 283.956,120.443 276.487,109.837 267.202,100.379 256.331,92.3004 244.142,85.8012 230.934,81.0411 217.033,78.1374 202.781,77.1614 188.53,78.1374 174.629,81.0411 161.421,85.8012 149.231,92.3004 138.361,100.379 129.076,109.837 121.607,120.443 116.136,131.935 112.798,144.03 111.677,156.43 112.798,168.831 116.136,180.926 121.607,192.418 129.076,203.023 138.361,212.482 149.231,220.56 161.421,227.059 174.629,231.819 188.53,234.723 188.53,234.723 202.781,235.699 217.033,234.723 230.934,231.819 244.142,227.059 256.331,220.56 267.202,212.482 276.487,203.023 283.956,192.418 289.427,180.926 292.764,168.831 293.886,156.43 292.764,144.03 289.427,131.935 283.956,120.443 276.487,109.837 267.202,100.379 256.331,92.3004 244.142,85.8012 230.934,81.0411 217.033,78.1374 202.781,77.1614 188.53,78.1374 174.629,81.0411 161.421,85.8012 149.231,92.3004 138.361,100.379 129.076,109.837 121.607,120.443 116.136,131.935 112.798,144.03 111.677,156.43 112.798,168.831 116.136,180.926 121.607,192.418 129.076,203.023 138.361,212.482 149.231,220.56 161.421,227.059 174.629,231.819 188.53,234.723 188.53,234.723 202.781,235.699 217.033,234.723 230.934,231.819 244.142,227.059" stroke-width="0.5" stroke="#000000" stroke-linejoin="round"/>
  </g>
  <clipPath id="cp00391324">
   <polygon points="0,324 391,324 391,0 0,0"/>
  </clipPath>
  <g clip-path="url(#cp00391324)">
   <polygon fill="#ffffff" points="272.036,72.6737 346.905,72.6737 346.905,32.0328 272.036,32.0328" shape-rendering="crispEdges"/>
   <polyline fill="none" stroke-linecap="square" stroke-dasharray="16,0" points="272.036,72.6737 346.905,72.6737" stroke-width="0.5" stroke="#262626" stroke-linejoin="miter"/>
   <polyline fill="none" stroke-linecap="square" stroke-dasharray="16,0" points="272.036,32.0328 346.905,32.0328" stroke-width="0.5" stroke="#262626" stroke-linejoin="miter"/>
   <polyline fill="none" stroke-linecap="square" stroke-dasharray="16,0" points="272.036,72.6737 272.036,32.0328" stroke-width="0.5" stroke="#262626" stroke-linejoin="miter"/>
   <polyline fill="none" stroke-linecap="square" stroke-dasharray="16,0" points="346.905,72.6737 346.905,32.0328" stroke-width="0.5" stroke="#262626" stroke-linejoin="miter"/>
   <polyline fill="none" stroke-linecap="butt" points="275.895,39.9431 295.188,39.9431" stroke-width="0.5" stroke="#ff0000" stroke-linejoin="round"/>
   <text xml:space="preserve" transform="translate(299.047,43.9431) rotate(-0,-0,-4)" font-family="FreeSans" font-style="normal" font-size="9" font-weight="normal">
    <tspan fill="rgb(0,0,0)" y="-0" x="0 6 11 16 ">Real</tspan>
   </text>
   <polyline fill="none" stroke-linecap="butt" points="275.895,52.3533 295.188,52.3533" stroke-width="0.5" stroke="#0071bc" stroke-linejoin="round"/>
   <text xml:space="preserve" transform="translate(299.047,56.8533) rotate(-0,-0,-4.5)" font-family="FreeSans" font-style="normal" font-size="9" font-weight="normal">
    <tspan fill="rgb(0,0,0)" y="-1" x="0 6 8 15 20 22 27 32 ">Simulada</tspan>
   </text>
   <polyline fill="none" stroke-linecap="butt" points="275.895,64.7635 295.188,64.7635" stroke-width="0.5" stroke="#000000" stroke-linejoin="round"/>
   <text xml:space="preserve" transform="translate(299.047,68.7635) rotate(-0,-0,-4)" font-family="FreeSans" font-style="normal" font-size="9" font-weight="normal">
    <tspan fill="rgb(0,0,0)" y="-0" x="0 6 11 14 19 22 27 32 37 39 ">Referência</tspan>
   </text>
  </g>
 </g>
</svg>
