<?xml version='1.0' encoding='UTF-8' standalone='no'?>
<svg xmlns:xlink="http://www.w3.org/1999/xlink" xmlns="http://www.w3.org/2000/svg" viewBox="0 0 389 324" height="324pt" width="389pt">
 <title>gl2ps_renderer figure</title>
 <desc>
Creator: GL2PS 1.4.2, (C) 1999-2020 C. Geuzaine
For: Octave
CreationDate: Sat Nov 12 12:48:32 2022
</desc>
 <defs/>
 <polygon points="0,0 389,0 389,324 0,324" fill="#ffffff"/>
 <g>
  <polygon shape-rendering="crispEdges" points="0,324 389,324 389,0 0,0" fill="#ffffff"/>
  <clipPath id="cp00389324">
   <polygon points="0,324 389,324 389,0 0,0"/>
  </clipPath>
  <g clip-path="url(#cp00389324)">
   <polygon shape-rendering="crispEdges" points="50.637,288.545 352.512,288.545 352.512,24.3156 50.637,24.3156" fill="#ffffff"/>
   <polyline stroke-linejoin="miter" stroke="#262626" stroke-opacity="0.15" stroke-dasharray="16,0" stroke-width="0.5" points="50.637,288.545 50.637,24.3156" stroke-linecap="butt" fill="none"/>
   <polyline stroke-linejoin="miter" stroke="#262626" stroke-opacity="0.15" stroke-dasharray="16,0" stroke-width="0.5" points="126.106,288.545 126.106,24.3156" stroke-linecap="butt" fill="none"/>
   <polyline stroke-linejoin="miter" stroke="#262626" stroke-opacity="0.15" stroke-dasharray="16,0" stroke-width="0.5" points="201.574,288.545 201.574,24.3156" stroke-linecap="butt" fill="none"/>
   <polyline stroke-linejoin="miter" stroke="#262626" stroke-opacity="0.15" stroke-dasharray="16,0" stroke-width="0.5" points="277.043,288.545 277.043,24.3156" stroke-linecap="butt" fill="none"/>
   <polyline stroke-linejoin="miter" stroke="#262626" stroke-opacity="0.15" stroke-dasharray="16,0" stroke-width="0.5" points="352.512,288.545 352.512,24.3156" stroke-linecap="butt" fill="none"/>
   <polyline stroke-linejoin="miter" stroke="#262626" stroke-width="0.5" points="50.637,288.545 50.637,285.524" stroke-linecap="butt" fill="none"/>
   <polyline stroke-linejoin="miter" stroke="#262626" stroke-width="0.5" points="126.106,288.545 126.106,285.524" stroke-linecap="butt" fill="none"/>
   <polyline stroke-linejoin="miter" stroke="#262626" stroke-width="0.5" points="201.574,288.545 201.574,285.524" stroke-linecap="butt" fill="none"/>
   <polyline stroke-linejoin="miter" stroke="#262626" stroke-width="0.5" points="277.043,288.545 277.043,285.524" stroke-linecap="butt" fill="none"/>
   <polyline stroke-linejoin="miter" stroke="#262626" stroke-width="0.5" points="352.512,288.545 352.512,285.524" stroke-linecap="butt" fill="none"/>
   <text font-family="FreeSans" font-weight="normal" transform="translate(41.6371,304.051) rotate(-0,9,-8)" font-style="normal" font-size="10" xml:space="preserve">
    <tspan x="0 3 9 12 " y="-0" fill="rgb(38,38,38)">-0.1</tspan>
   </text>
   <text font-family="FreeSans" font-weight="normal" transform="translate(114.106,304.051) rotate(-0,12,-8)" font-style="normal" font-size="10" xml:space="preserve">
    <tspan x="0 3 9 12 18 " y="-0" fill="rgb(38,38,38)">-0.05</tspan>
   </text>
   <text font-family="FreeSans" font-weight="normal" transform="translate(198.574,304.051) rotate(-0,3,-8)" font-style="normal" font-size="10" xml:space="preserve">
    <tspan x="0 " y="-0" fill="rgb(38,38,38)">0</tspan>
   </text>
   <text font-family="FreeSans" font-weight="normal" transform="translate(266.543,304.051) rotate(-0,10.5,-8)" font-style="normal" font-size="10" xml:space="preserve">
    <tspan x="0 6 9 15 " y="-0" fill="rgb(38,38,38)">0.05</tspan>
   </text>
   <text font-family="FreeSans" font-weight="normal" transform="translate(345.012,304.051) rotate(-0,7.5,-8)" font-style="normal" font-size="10" xml:space="preserve">
    <tspan x="0 6 9 " y="-0" fill="rgb(38,38,38)">0.1</tspan>
   </text>
   <polyline stroke-linejoin="miter" stroke="#262626" stroke-opacity="0.15" stroke-dasharray="16,0" stroke-width="0.5" points="50.637,288.545 352.512,288.545" stroke-linecap="butt" fill="none"/>
   <polyline stroke-linejoin="miter" stroke="#262626" stroke-opacity="0.15" stroke-dasharray="16,0" stroke-width="0.5" points="50.637,222.488 352.512,222.488" stroke-linecap="butt" fill="none"/>
   <polyline stroke-linejoin="miter" stroke="#262626" stroke-opacity="0.15" stroke-dasharray="16,0" stroke-width="0.5" points="50.637,156.43 352.512,156.43" stroke-linecap="butt" fill="none"/>
   <polyline stroke-linejoin="miter" stroke="#262626" stroke-opacity="0.15" stroke-dasharray="16,0" stroke-width="0.5" points="50.637,90.3729 352.512,90.3729" stroke-linecap="butt" fill="none"/>
   <polyline stroke-linejoin="miter" stroke="#262626" stroke-opacity="0.15" stroke-dasharray="16,0" stroke-width="0.5" points="50.637,24.3156 352.512,24.3156" stroke-linecap="butt" fill="none"/>
   <polyline stroke-linejoin="miter" stroke="#262626" stroke-width="0.5" points="50.637,288.545 53.6545,288.545" stroke-linecap="butt" fill="none"/>
   <polyline stroke-linejoin="miter" stroke="#262626" stroke-width="0.5" points="50.637,222.488 53.6545,222.488" stroke-linecap="butt" fill="none"/>
   <polyline stroke-linejoin="miter" stroke="#262626" stroke-width="0.5" points="50.637,156.43 53.6545,156.43" stroke-linecap="butt" fill="none"/>
   <polyline stroke-linejoin="miter" stroke="#262626" stroke-width="0.5" points="50.637,90.3729 53.6545,90.3729" stroke-linecap="butt" fill="none"/>
   <polyline stroke-linejoin="miter" stroke="#262626" stroke-width="0.5" points="50.637,24.3156 53.6545,24.3156" stroke-linecap="butt" fill="none"/>
   <text font-family="FreeSans" font-weight="normal" transform="translate(27.6391,292.545) rotate(-0,18,-4)" font-style="normal" font-size="10" xml:space="preserve">
    <tspan x="0 3 9 12 " y="-0" fill="rgb(38,38,38)">-0.1</tspan>
   </text>
   <text font-family="FreeSans" font-weight="normal" transform="translate(21.6391,226.488) rotate(-0,24,-4)" font-style="normal" font-size="10" xml:space="preserve">
    <tspan x="0 3 9 12 18 " y="-0" fill="rgb(38,38,38)">-0.05</tspan>
   </text>
   <text font-family="FreeSans" font-weight="normal" transform="translate(39.6391,160.43) rotate(-0,6,-4)" font-style="normal" font-size="10" xml:space="preserve">
    <tspan x="0 " y="-0" fill="rgb(38,38,38)">0</tspan>
   </text>
   <text font-family="FreeSans" font-weight="normal" transform="translate(24.6391,94.3729) rotate(-0,21,-4)" font-style="normal" font-size="10" xml:space="preserve">
    <tspan x="0 6 9 15 " y="-0" fill="rgb(38,38,38)">0.05</tspan>
   </text>
   <text font-family="FreeSans" font-weight="normal" transform="translate(30.6391,28.3156) rotate(-0,15,-4)" font-style="normal" font-size="10" xml:space="preserve">
    <tspan x="0 6 9 " y="-0" fill="rgb(38,38,38)">0.1</tspan>
   </text>
   <polyline stroke-linejoin="miter" stroke="#262626" stroke-dasharray="16,0" stroke-width="0.5" points="50.637,288.545 352.512,288.545" stroke-linecap="square" fill="none"/>
   <polyline stroke-linejoin="miter" stroke="#262626" stroke-dasharray="16,0" stroke-width="0.5" points="50.637,288.545 50.637,24.3156" stroke-linecap="square" fill="none"/>
   <text font-family="FreeSans" font-weight="normal" transform="translate(158.574,321.051) rotate(-0,43,-12)" font-style="normal" font-size="11" xml:space="preserve">
    <tspan x="0 7 13 18 20 26 32 38 41 47 56 59 66 69 73 82 " y="-3" fill="rgb(38,38,38)">Posição em X (m)</tspan>
   </text>
   <text font-family="FreeSans" font-weight="normal" transform="translate(-26.3609,156.43) rotate(-90,43,0)" font-style="normal" font-size="11" xml:space="preserve">
    <tspan x="0 7 13 18 20 26 32 38 41 47 56 59 66 69 73 82 " y="-3" fill="rgb(38,38,38)">Posição em Y (m)</tspan>
   </text>
   <text font-family="FreeSans" font-weight="bold" transform="translate(147.074,14.3156) rotate(-0,54.5,0)" font-style="normal" font-size="11" xml:space="preserve">
    <tspan x="0 7 11 17 20 26 30 37 41 44 50 53 56 65 72 78 85 89 95 102 " y="-3" fill="rgb(0,0,0)">Trajetória: Quadrado</tspan>
   </text>
   <polyline stroke-linejoin="round" stroke="#ff0000" stroke-width="0.5" points="204.744,173.737 204.14,174.398 204.14,174.398 204.14,174.398 203.386,174.398 201.876,176.247 201.273,178.758 200.518,180.607 200.518,183.117 201.273,186.949 201.876,193.29 202.631,195.8 204.744,202.01 205.499,210.201 206.253,218.392 207.008,226.583 207.612,235.435 209.121,239.134 211.234,246.136 216.366,252.345 222.706,255.516 227.083,258.687 232.818,259.876 240.063,263.047 247.158,266.218 253.648,267.407 259.383,270.577 263.006,271.238 267.987,272.559 275.987,279.429 278.1,276.919 278.1,276.258 282.477,274.409 283.081,273.748 286.099,270.577 286.703,266.878 287.458,264.896 288.212,259.348 288.967,257.366 287.458,255.516 287.458,252.345 286.099,251.685 283.835,248.646 284.59,242.965 281.722,240.984 280.967,234.114 280.967,225.262 280.967,215.882 281.722,205.841 283.081,199.5 284.59,186.288 285.345,173.077 288.212,159.205 289.571,151.674 292.439,137.934 296.816,124.062 299.684,110.851 301.797,99.4888 302.552,93.8079 304.665,80.5964 306.174,77.4257 309.042,66.7244 309.797,64.2142 310.4,63.6857 311.155,64.2142 309.797,64.8748 309.042,65.5353 306.174,69.2346 305.419,69.8951 301.193,73.7265 297.571,75.5761 295.307,77.4257 286.703,81.257 283.081,81.9176 274.477,83.1066 265.119,84.4277 253.648,85.0883 240.818,85.0883 234.328,83.7672 219.234,82.446 204.14,79.9359 196.141,78.7468 171.085,75.5761 155.237,72.4053 147.237,70.5557 132.143,67.3849 118.559,64.8748 105.578,63.6857 94.8617,63.6857 90.4845,63.0252 81.1264,62.3646 75.3908,61.704 71.7683,59.8544 70.4098,57.3442 70.4098,54.1735 71.7683,54.1735 75.3908,54.1735 79.768,55.4946 79.768,55.4946 87.6167,58.6654 91.2392,61.1756 92.7486,63.0252 95.6164,68.7061 99.0879,73.7265 103.465,79.9359 105.578,83.7672 109.201,92.6189 112.823,102.66 115.691,112.04 114.182,125.912 113.578,132.782 112.823,145.993 110.71,161.715 109.201,176.908 103.465,192.63 98.4842,207.03 96.9748,214.032 94.107,229.093 92.7486,241.644 94.107,250.496 94.107,261.858 94.107,265.557 96.2201,272.559 98.4842,276.919 101.352,278.768 103.465,278.768 103.465,277.579 104.974,272.559 104.22,270.577 102.71,263.707 101.956,261.858 101.956,255.516 101.956,251.685 101.956,250.496 104.22,248.646 106.333,247.986 108.446,247.986 113.578,249.175 114.936,249.175 125.804,254.195 130.785,254.856 143.011,257.366 149.501,258.026 173.198,260.537 181.802,261.197 198.405,261.858 216.366,263.707 242.931,265.557 250.78,266.218 259.383,264.368 276.741,263.707 288.212,262.386 303.306,263.707 309.042,260.537 318.4,258.687 318.4,258.687 323.381,254.195 327.758,251.156 327.003,246.136 324.89,242.965 322.022,240.455 316.891,233.453 316.287,230.414 308.287,226.583 303.306,222.752 298.174,217.203 295.307,214.032 291.835,207.691 290.326,199.5 291.08,195.14 290.326,185.099 291.835,169.906 292.439,164.357 293.948,152.995 296.061,141.633 298.174,136.613 302.552,125.912 306.929,115.871 311.155,106.359 314.023,97.6392 315.532,92.6189 316.287,85.6168 315.532,80.5964 313.268,77.4257 311.91,74.9155 311.155,74.9155 311.155,76.8972 311.155,76.8972 310.4,80.5964 308.287,84.4277 304.061,88.7875 298.929,91.9583 291.835,94.4685 287.458,94.4685 278.854,95.6575 268.742,96.3181 257.27,95.6575 244.29,95.6575 237.799,95.6575 224.215,95.129 209.121,94.4685 194.028,92.6189 177.424,90.1087 169.576,89.4481 153.727,88.127 138.03,86.2773 123.54,85.0883 117.049,84.4277 104.22,81.9176 88.3714,79.9359 84.7489,79.9359 77.6548,79.4074 74.787,79.9359 70.4098,80.5964 70.4098,82.446 71.1645,82.446 74.0323,82.446 75.3908,82.446 81.1264,82.446 83.9942,83.7672 85.5036,85.0883 86.862,88.127 87.6167,91.9583 87.6167,95.6575 86.862,99.4888 86.862,101.338 86.2583,105.83 84.7489,111.511 82.6358,119.042 80.5226,127.761 79.768,132.782 77.6548,143.483 78.2586,154.845 77.6548,168.717 78.2586,181.928 79.768,188.138 81.1264,202.01 83.9942,214.561 88.3714,226.583 94.107,237.284 99.0879,245.476 102.71,249.175 107.842,253.667 113.578,259.348 115.691,261.197 119.314,263.047 121.427,264.896 122.181,265.557 123.54,266.878 123.54,265.557 124.294,266.218 125.049,264.896 125.049,264.896 126.408,264.896 128.672,266.218 132.143,267.407 135.766,267.407 140.143,268.728 142.256,268.067 147.992,267.407 154.482,263.047 158.859,262.386 174.557,261.197 179.688,259.348 191.914,259.876 204.744,258.687 219.234,259.876 232.064,257.366 247.158,256.177 254.402,255.516 267.383,255.516 279.609,254.856 285.345,254.195 295.307,256.837 306.174,256.837 309.797,257.366 316.287,253.667 318.4,256.177 317.645,250.496 316.891,246.136 313.268,240.455 311.91,239.134 307.532,235.435 304.061,233.453 299.684,229.093 297.571,228.433 293.948,223.412 290.326,217.731 286.703,210.861 284.59,204.52 283.081,201.349 278.854,190.119 278.1,185.099 276.741,174.926 276.741,165.546 276.741,159.865 278.854,142.955 279.609,136.613 280.967,126.572 282.477,115.21 283.835,105.83 284.59,100.81 286.099,93.1473 287.458,86.9379 290.326,81.257 290.326,78.7468 291.835,74.387 291.08,71.8768 290.326,70.5557 288.967,71.2163 286.703,72.4053 284.59,74.387 283.835,75.5761 280.967,79.4074 280.967,79.4074 277.345,80.5964 275.232,79.9359 274.477,79.9359 272.364,79.9359 270.251,79.4074 265.874,78.7468 260.138,77.4257 255.912,76.8972 245.044,76.2366 231.46,74.9155 217.725,74.9155 201.273,74.387 183.915,73.7265 167.463,72.4053 158.859,71.8768 141.501,69.2346 127.162,68.7061 113.578,68.0455 107.088,67.3849 95.6164,66.1959 88.3714,64.8748 82.6358,63.6857 78.2586,63.0252 73.2777,61.704 73.2777,61.704 72.523,63.0252 73.2777,64.8748 74.787,68.0455 75.3908,69.2346 76.1455,74.387 76.1455,77.4257 75.3908,85.0883 74.0323,93.8079 74.0323,104.509 74.0323,116.532 76.1455,129.083 78.2586,144.144 79.0133,151.674 79.768,166.867 80.5226,183.117 82.6358,197.65 86.862,211.522 89.1261,224.734 90.4845,237.945 91.9939,242.965 96.2201,252.345 99.8426,259.876 104.974,267.407 107.088,270.049 111.314,274.409 112.069,274.409 109.955,274.409 104.974,272.559 101.956,272.559 97.7295,268.067 94.8617,264.896 94.8617,260.537 96.9748,255.516 99.0879,254.195 104.974,251.156 112.069,249.175 119.314,248.646 123.54,248.646 135.162,250.496 152.369,254.195 158.104,255.516 171.689,258.026 186.783,259.348 194.028,261.858 209.121,264.368 234.328,270.049 242.177,271.238 257.27,271.898 270.251,273.087 283.081,278.108 283.081,278.108 301.797,276.258 312.664,278.768 315.532,276.258 321.268,275.598 322.022,275.598 324.89,271.238 323.381,270.577" stroke-linecap="butt" fill="none"/>
   <polyline stroke-linejoin="round" stroke="#0071bc" stroke-width="0.5" points="204.744,173.737 204.003,173.806 202.159,174.292 198.993,175.603 194.585,177.945 189.233,181.34 183.343,185.695 177.358,190.849 171.708,196.612 166.784,202.784 162.915,209.171 160.369,215.597 159.342,221.906 159.97,227.967 162.326,233.676 166.43,238.951 172.258,243.737 179.74,247.996 188.715,251.711 198.916,254.884 210.022,257.526 221.693,259.661 233.6,261.323 245.443,262.551 256.96,263.388 267.934,263.88 278.19,264.073 287.598,264.015 296.072,263.75 303.558,263.321 310.038,262.766 315.521,262.121 320.04,261.413 323.647,260.609 326.406,259.604 328.393,258.252 329.69,256.398 330.384,253.895 330.56,250.622 330.302,246.483 329.693,241.413 328.807,235.375 327.716,228.362 326.482,220.386 325.161,211.485 323.803,201.708 322.447,191.121 321.129,179.803 319.876,167.892 318.707,155.601 317.64,143.177 316.683,130.874 315.841,118.927 315.118,107.539 314.51,96.8809 314.013,87.0806 313.621,78.2295 313.326,70.3825 313.119,63.5622 312.99,57.7627 312.929,52.9543 312.925,49.0876 312.963,46.0986 312.964,43.9118 312.772,42.4448 312.19,41.6109 311.013,41.3223 309.056,41.4926 306.163,42.0383 302.212,42.881 297.121,43.9481 290.843,45.1736 283.367,46.4991 274.71,47.8736 264.915,49.2535 254.045,50.6026 242.178,51.8919 229.411,53.0987 215.911,54.2063 201.926,55.2036 187.746,56.0841 173.669,56.8454 159.968,57.4885 146.885,58.0173 134.617,58.4381 123.317,58.7586 113.095,58.9879 104.017,59.1358 96.1124,59.2126 89.377,59.2284 83.7792,59.1935 79.2646,59.1174 75.7609,59.0149 73.183,58.954 71.4371,59.0719 70.4242,59.5411 70.044,60.5389 70.1973,62.2277 70.7883,64.7438 71.7266,68.1919 72.9285,72.6437 74.318,78.1385 75.8273,84.6864 77.3973,92.271 78.9775,100.854 80.5258,110.381 82.0081,120.78 83.398,131.968 84.6759,143.798 85.8284,156.053 86.8476,168.476 87.7306,180.81 88.478,192.814 89.0943,204.276 89.5861,215.023 89.9623,224.921 90.2333,233.875 90.4102,241.826 90.5046,248.75 90.5283,254.649 90.4929,259.551 90.4095,263.504 90.2883,266.572 90.1458,268.829 90.0586,270.357 90.1825,271.243 90.7137,271.575 91.854,271.439 93.7879,270.921 96.6704,270.098 100.62,269.044 105.719,267.826 112.01,266.504 119.505,265.128 128.185,263.744 138.005,262.387 148.903,261.088 160.797,259.871 173.59,258.751 187.117,257.742 201.127,256.849 215.329,256.076 229.428,255.421 243.147,254.882 256.247,254.451 268.529,254.122 279.84,253.884 290.071,253.73 299.157,253.647 307.067,253.626 313.806,253.657 319.406,253.731 323.922,253.837 327.425,253.962 330.002,254.038 331.746,253.93 332.756,253.465 333.134,252.467 332.977,250.775 332.383,248.252 331.442,244.795 330.237,240.332 328.844,234.825 327.332,228.265 325.759,220.668 324.177,212.072 322.626,202.534 321.142,192.123 319.751,180.925 318.472,169.085 317.318,156.822 316.298,144.391 315.415,132.051 314.667,120.042 314.05,108.576 313.558,97.8257 313.182,87.9252 312.911,78.9696 312.735,71.0172 312.641,64.0934 312.617,58.1946 312.653,53.293 312.737,49.3405 312.852,46.2739 312.92,44.0185 312.784,42.4919 312.248,41.6074 311.109,41.277 309.18,41.4139 306.307,41.934 302.369,42.7581 297.284,43.8128 291.008,45.0317 283.529,46.3553 274.866,47.7318 265.061,49.117 254.179,50.4741 242.299,51.7732 229.519,52.9911 216.004,54.1107 202.005,55.1204 187.812,56.0133 173.721,56.7866 160.008,57.4412 146.914,57.9807 134.636,58.4113 123.328,58.7406 113.098,58.9776 104.014,59.1322 96.104,59.2146 89.3646,59.2351 83.7638,59.2038 79.2471,59.1304 75.7421,59.0299 73.1637,58.9702 71.4177,59.0887 70.4054,59.558 70.0261,60.5554 70.1805,62.2435 70.773,64.7586 71.7128,68.2055 72.9164,72.6559 74.3075,78.1493 75.8185,84.6957 77.3901,92.2789 78.9718,100.861 80.5215,110.386 82.0051,120.784 83.3961,131.97 84.675,143.8 85.8283,156.054 86.8482,168.477 87.7317,180.81 88.4796,192.813 89.0962,204.274 89.5882,215.021 89.9646,224.919 90.2356,233.873 90.4124,241.824 90.5068,248.748 90.5304,254.647 90.4949,259.549 90.4112,263.503 90.2899,266.571 90.1472,268.827 90.0597,270.356 90.1834,271.242 90.7145,271.574 91.8546,271.439 93.7884,270.92 96.6708,270.097 100.621,269.044 105.719,267.826 112.01,266.504 119.505,265.128 128.185,263.744 138.005,262.387 148.902,261.089 160.796,259.871 173.59,258.752 187.117,257.742 201.127,256.849 215.329,256.076 229.427,255.422 243.147,254.882 256.247,254.451 268.528,254.122 279.84,253.884 290.071,253.73 299.156,253.647 307.067,253.626 313.806,253.658 319.406,253.731 323.922,253.837 327.425,253.962 330.002,254.038 331.746,253.93 332.756,253.465 333.134,252.467 332.977,250.775 332.383,248.252 331.442,244.795 330.237,240.332 328.844,234.825 327.332,228.265 325.759,220.668 324.177,212.072 322.626,202.534 321.142,192.123 319.751,180.925 318.472,169.085 317.318,156.822 316.298,144.391 315.415,132.051 314.667,120.042 314.05,108.576 313.558,97.8257 313.182,87.9252 312.911,78.9696 312.735,71.0172 312.641,64.0934 312.617,58.1946 312.653,53.293 312.737,49.3405 312.852,46.2739 312.92,44.0185 312.784,42.4919 312.248,41.6074 311.109,41.277 309.18,41.4139 306.307,41.934 302.369,42.7581 297.284,43.8128 291.008,45.0317 283.529,46.3553 274.866,47.7318 265.061,49.117 254.179,50.4741 242.299,51.7732 229.519,52.9911 216.004,54.1107 202.005,55.1204 187.812,56.0133 173.721,56.7866 160.008,57.4412 146.914,57.9807 134.636,58.4113 123.328,58.7406 113.098,58.9776 104.014,59.1322 96.104,59.2146 89.3646,59.2351 83.7638,59.2038 79.2471,59.1304 75.7421,59.0299 73.1637,58.9702 71.4177,59.0887 70.4054,59.558 70.0261,60.5554 70.1805,62.2435 70.773,64.7586 71.7128,68.2055 72.9164,72.6559 74.3075,78.1493 75.8185,84.6957 77.3901,92.2789 78.9718,100.861 80.5215,110.386 82.0051,120.784 83.3961,131.97 84.675,143.8 85.8283,156.054 86.8482,168.477 87.7317,180.81 88.4796,192.813 89.0962,204.274 89.5882,215.021 89.9646,224.919 90.2356,233.873 90.4124,241.824 90.5068,248.748 90.5304,254.647 90.4949,259.549 90.4112,263.503 90.2899,266.571 90.1472,268.827 90.0597,270.356 90.1834,271.242 90.7145,271.574 91.8546,271.439 93.7884,270.92 96.6708,270.097 100.621,269.044 105.719,267.826 112.01,266.504 119.505,265.128 128.185,263.744 138.005,262.387 148.902,261.089 160.796,259.871 173.59,258.752 187.117,257.742 201.127,256.849 215.329,256.076 229.427,255.422 243.147,254.882 256.247,254.451 268.528,254.122 279.84,253.884 290.071,253.73 299.156,253.647 307.067,253.626 313.806,253.658 319.406,253.731 323.922,253.837 327.425,253.962 330.002,254.038 331.746,253.93" stroke-linecap="butt" fill="none"/>
   <polyline stroke-linejoin="round" stroke="#000000" stroke-width="0.5" points="88.3714,255.516 103.465,255.516 118.559,255.516 133.653,255.516 148.746,255.516 163.84,255.516 178.934,255.516 194.028,255.516 209.121,255.516 224.215,255.516 239.309,255.516 254.402,255.516 269.496,255.516 284.59,255.516 299.684,255.516 314.777,255.516 314.777,255.516 314.777,255.516 314.777,255.516 314.777,255.516 314.777,255.516 314.777,255.516 314.777,255.516 314.777,255.516 314.777,255.516 314.777,255.516 314.777,255.516 314.777,255.516 314.777,255.516 314.777,255.516 314.777,255.516 314.777,242.305 314.777,229.093 314.777,215.882 314.777,202.67 314.777,189.459 314.777,176.247 314.777,163.036 314.777,149.825 314.777,136.613 314.777,123.402 314.777,110.19 314.777,96.9786 314.777,83.7672 314.777,70.5557 314.777,57.3442 314.777,57.3442 314.777,57.3442 314.777,57.3442 314.777,57.3442 314.777,57.3442 314.777,57.3442 314.777,57.3442 314.777,57.3442 314.777,57.3442 314.777,57.3442 314.777,57.3442 314.777,57.3442 314.777,57.3442 314.777,57.3442 314.777,57.3442 299.684,57.3442 284.59,57.3442 269.496,57.3442 254.402,57.3442 239.309,57.3442 224.215,57.3442 209.121,57.3442 194.028,57.3442 178.934,57.3442 163.84,57.3442 148.746,57.3442 133.653,57.3442 118.559,57.3442 103.465,57.3442 88.3714,57.3442 88.3714,57.3442 88.3714,57.3442 88.3714,57.3442 88.3714,57.3442 88.3714,57.3442 88.3714,57.3442 88.3714,57.3442 88.3714,57.3442 88.3714,57.3442 88.3714,57.3442 88.3714,57.3442 88.3714,57.3442 88.3714,57.3442 88.3714,57.3442 88.3714,57.3442 88.3714,70.5557 88.3714,83.7672 88.3714,96.9786 88.3714,110.19 88.3714,123.402 88.3714,136.613 88.3714,149.825 88.3714,163.036 88.3714,176.247 88.3714,189.459 88.3714,202.67 88.3714,215.882 88.3714,229.093 88.3714,242.305 88.3714,255.516 88.3714,255.516 88.3714,255.516 88.3714,255.516 88.3714,255.516 88.3714,255.516 88.3714,255.516 88.3714,255.516 88.3714,255.516 88.3714,255.516 88.3714,255.516 88.3714,255.516 88.3714,255.516 88.3714,255.516 88.3714,255.516 88.3714,255.516 88.3714,255.516 103.465,255.516 118.559,255.516 133.653,255.516 148.746,255.516 163.84,255.516 178.934,255.516 194.028,255.516 209.121,255.516 224.215,255.516 239.309,255.516 254.402,255.516 269.496,255.516 284.59,255.516 299.684,255.516 314.777,255.516 314.777,255.516 314.777,255.516 314.777,255.516 314.777,255.516 314.777,255.516 314.777,255.516 314.777,255.516 314.777,255.516 314.777,255.516 314.777,255.516 314.777,255.516 314.777,255.516 314.777,255.516 314.777,255.516 314.777,255.516 314.777,242.305 314.777,229.093 314.777,215.882 314.777,202.67 314.777,189.459 314.777,176.247 314.777,163.036 314.777,149.825 314.777,136.613 314.777,123.402 314.777,110.19 314.777,96.9786 314.777,83.7672 314.777,70.5557 314.777,57.3442 314.777,57.3442 314.777,57.3442 314.777,57.3442 314.777,57.3442 314.777,57.3442 314.777,57.3442 314.777,57.3442 314.777,57.3442 314.777,57.3442 314.777,57.3442 314.777,57.3442 314.777,57.3442 314.777,57.3442 314.777,57.3442 314.777,57.3442 299.684,57.3442 284.59,57.3442 269.496,57.3442 254.402,57.3442 239.309,57.3442 224.215,57.3442 209.121,57.3442 194.028,57.3442 178.934,57.3442 163.84,57.3442 148.746,57.3442 133.653,57.3442 118.559,57.3442 103.465,57.3442 88.3714,57.3442 88.3714,57.3442 88.3714,57.3442 88.3714,57.3442 88.3714,57.3442 88.3714,57.3442 88.3714,57.3442 88.3714,57.3442 88.3714,57.3442 88.3714,57.3442 88.3714,57.3442 88.3714,57.3442 88.3714,57.3442 88.3714,57.3442 88.3714,57.3442 88.3714,57.3442 88.3714,70.5557 88.3714,83.7672 88.3714,96.9786 88.3714,110.19 88.3714,123.402 88.3714,136.613 88.3714,149.825 88.3714,163.036 88.3714,176.247 88.3714,189.459 88.3714,202.67 88.3714,215.882 88.3714,229.093 88.3714,242.305 88.3714,255.516 88.3714,255.516 88.3714,255.516 88.3714,255.516 88.3714,255.516 88.3714,255.516 88.3714,255.516 88.3714,255.516 88.3714,255.516 88.3714,255.516 88.3714,255.516 88.3714,255.516 88.3714,255.516 88.3714,255.516 88.3714,255.516 88.3714,255.516 88.3714,255.516 103.465,255.516 118.559,255.516 133.653,255.516 148.746,255.516 163.84,255.516 178.934,255.516 194.028,255.516 209.121,255.516 224.215,255.516 239.309,255.516 254.402,255.516 269.496,255.516 284.59,255.516 299.684,255.516 314.777,255.516 314.777,255.516 314.777,255.516 314.777,255.516 314.777,255.516 314.777,255.516 314.777,255.516 314.777,255.516 314.777,255.516 314.777,255.516 314.777,255.516 314.777,255.516 314.777,255.516 314.777,255.516 314.777,255.516 314.777,255.516 314.777,242.305 314.777,229.093 314.777,215.882 314.777,202.67 314.777,189.459 314.777,176.247 314.777,163.036 314.777,149.825 314.777,136.613 314.777,123.402 314.777,110.19 314.777,96.9786 314.777,83.7672 314.777,70.5557 314.777,57.3442 314.777,57.3442 314.777,57.3442 314.777,57.3442 314.777,57.3442 314.777,57.3442 314.777,57.3442 314.777,57.3442 314.777,57.3442 314.777,57.3442 314.777,57.3442 314.777,57.3442 314.777,57.3442 314.777,57.3442 314.777,57.3442 314.777,57.3442 299.684,57.3442 284.59,57.3442 269.496,57.3442 254.402,57.3442 239.309,57.3442 224.215,57.3442 209.121,57.3442 194.028,57.3442 178.934,57.3442 163.84,57.3442 148.746,57.3442 133.653,57.3442 118.559,57.3442 103.465,57.3442 88.3714,57.3442 88.3714,57.3442 88.3714,57.3442 88.3714,57.3442 88.3714,57.3442 88.3714,57.3442 88.3714,57.3442 88.3714,57.3442 88.3714,57.3442 88.3714,57.3442 88.3714,57.3442 88.3714,57.3442 88.3714,57.3442 88.3714,57.3442 88.3714,57.3442 88.3714,57.3442 88.3714,70.5557 88.3714,83.7672 88.3714,96.9786 88.3714,110.19 88.3714,123.402 88.3714,136.613 88.3714,149.825 88.3714,163.036 88.3714,176.247 88.3714,189.459 88.3714,202.67 88.3714,215.882 88.3714,229.093 88.3714,242.305 88.3714,255.516 88.3714,255.516 88.3714,255.516 88.3714,255.516 88.3714,255.516 88.3714,255.516 88.3714,255.516 88.3714,255.516 88.3714,255.516 88.3714,255.516 88.3714,255.516 88.3714,255.516 88.3714,255.516 88.3714,255.516 88.3714,255.516 88.3714,255.516 88.3714,255.516 103.465,255.516 118.559,255.516 133.653,255.516 148.746,255.516 163.84,255.516 178.934,255.516 194.028,255.516 209.121,255.516 224.215,255.516 239.309,255.516 254.402,255.516 269.496,255.516 284.59,255.516 299.684,255.516 314.777,255.516 314.777,255.516 314.777,255.516 314.777,255.516 314.777,255.516 314.777,255.516 314.777,255.516 314.777,255.516 314.777,255.516 314.777,255.516 314.777,255.516 314.777,255.516 314.777,255.516 314.777,255.516 314.777,255.516 314.777,255.516 314.777,242.305 314.777,229.093 314.777,215.882 314.777,202.67" stroke-linecap="butt" fill="none"/>
  </g>
  <clipPath id="cp00389324">
   <polygon points="0,324 389,324 389,0 0,0"/>
  </clipPath>
  <g clip-path="url(#cp00389324)">
   <polygon shape-rendering="crispEdges" points="269.925,72.6737 344.794,72.6737 344.794,32.0328 269.925,32.0328" fill="#ffffff"/>
   <polyline stroke-linejoin="miter" stroke="#262626" stroke-dasharray="16,0" stroke-width="0.5" points="269.925,72.6737 344.794,72.6737" stroke-linecap="square" fill="none"/>
   <polyline stroke-linejoin="miter" stroke="#262626" stroke-dasharray="16,0" stroke-width="0.5" points="269.925,32.0328 344.794,32.0328" stroke-linecap="square" fill="none"/>
   <polyline stroke-linejoin="miter" stroke="#262626" stroke-dasharray="16,0" stroke-width="0.5" points="269.925,72.6737 269.925,32.0328" stroke-linecap="square" fill="none"/>
   <polyline stroke-linejoin="miter" stroke="#262626" stroke-dasharray="16,0" stroke-width="0.5" points="344.794,72.6737 344.794,32.0328" stroke-linecap="square" fill="none"/>
   <polyline stroke-linejoin="round" stroke="#ff0000" stroke-width="0.5" points="273.784,39.9431 293.077,39.9431" stroke-linecap="butt" fill="none"/>
   <text font-family="FreeSans" font-weight="normal" transform="translate(296.936,43.9431) rotate(-0,-0,-4)" font-style="normal" font-size="9" xml:space="preserve">
    <tspan x="0 6 11 16 " y="-0" fill="rgb(0,0,0)">Real</tspan>
   </text>
   <polyline stroke-linejoin="round" stroke="#0071bc" stroke-width="0.5" points="273.784,52.3533 293.077,52.3533" stroke-linecap="butt" fill="none"/>
   <text font-family="FreeSans" font-weight="normal" transform="translate(296.936,56.8533) rotate(-0,-0,-4.5)" font-style="normal" font-size="9" xml:space="preserve">
    <tspan x="0 6 8 15 20 22 27 32 " y="-1" fill="rgb(0,0,0)">Simulada</tspan>
   </text>
   <polyline stroke-linejoin="round" stroke="#000000" stroke-width="0.5" points="273.784,64.7635 293.077,64.7635" stroke-linecap="butt" fill="none"/>
   <text font-family="FreeSans" font-weight="normal" transform="translate(296.936,68.7635) rotate(-0,-0,-4)" font-style="normal" font-size="9" xml:space="preserve">
    <tspan x="0 6 11 14 19 22 27 32 37 39 " y="-0" fill="rgb(0,0,0)">Referência</tspan>
   </text>
  </g>
 </g>
</svg>
